<svg width="50" height="50" viewBox="0 0 50 50" fill="none" xmlns="http://www.w3.org/2000/svg">
<g clip-path="url(#clip0_370_168)">
<path d="M10.9999 18.75C10.9999 19.5784 11.6715 20.25 12.4999 20.25C13.3283 20.25 13.9999 19.5784 13.9999 18.75H10.9999ZM12.4999 12.5V11C11.6715 11 10.9999 11.6716 10.9999 12.5H12.4999ZM18.7499 14C19.5783 14 20.2499 13.3284 20.2499 12.5C20.2499 11.6716 19.5783 11 18.7499 11V14ZM35.9999 18.75C35.9999 19.5784 36.6715 20.25 37.4999 20.25C38.3283 20.25 38.9999 19.5784 38.9999 18.75H35.9999ZM37.4999 12.5H38.9999C38.9999 11.6716 38.3283 11 37.4999 11V12.5ZM31.2499 11C30.4215 11 29.7499 11.6716 29.7499 12.5C29.7499 13.3284 30.4215 14 31.2499 14V11ZM38.9999 31.25C38.9999 30.4216 38.3283 29.75 37.4999 29.75C36.6715 29.75 35.9999 30.4216 35.9999 31.25H38.9999ZM37.4999 37.5V39C38.3283 39 38.9999 38.3284 38.9999 37.5H37.4999ZM31.2499 36C30.4215 36 29.7499 36.6716 29.7499 37.5C29.7499 38.3284 30.4215 39 31.2499 39V36ZM13.9999 31.25C13.9999 30.4216 13.3283 29.75 12.4999 29.75C11.6715 29.75 10.9999 30.4216 10.9999 31.25H13.9999ZM12.4999 37.5H10.9999C10.9999 38.3284 11.6715 39 12.4999 39V37.5ZM18.7499 39C19.5783 39 20.2499 38.3284 20.2499 37.5C20.2499 36.6716 19.5783 36 18.7499 36V39ZM41.6666 26.5C42.495 26.5 43.1666 25.8284 43.1666 25C43.1666 24.1716 42.495 23.5 41.6666 23.5V26.5ZM8.33325 23.5C7.50482 23.5 6.83325 24.1716 6.83325 25C6.83325 25.8284 7.50482 26.5 8.33325 26.5V23.5ZM13.9999 18.75V12.5H10.9999V18.75H13.9999ZM12.4999 14H18.7499V11H12.4999V14ZM38.9999 18.75V12.5H35.9999V18.75H38.9999ZM37.4999 11H31.2499V14H37.4999V11ZM35.9999 31.25V37.5H38.9999V31.25H35.9999ZM37.4999 36H31.2499V39H37.4999V36ZM10.9999 31.25V37.5H13.9999V31.25H10.9999ZM12.4999 39H18.7499V36H12.4999V39ZM41.6666 23.5H8.33325V26.5H41.6666V23.5Z" fill="url(#paint0_linear_370_168)"/>
</g>
<defs>
<linearGradient id="paint0_linear_370_168" x1="8.33325" y1="24.0397" x2="41.6932" y2="23.4019" gradientUnits="userSpaceOnUse">
<stop stop-color="#4650F6"/>
<stop offset="1" stop-color="#141B8C"/>
</linearGradient>
<clipPath id="clip0_370_168">
<rect width="50" height="50" fill="white"/>
</clipPath>
</defs>
</svg>
