<svg width="50" height="50" viewBox="0 0 50 50" fill="none" xmlns="http://www.w3.org/2000/svg">
<g clip-path="url(#clip0_370_74)">
<path d="M14.4538 32.7557C15.2816 32.7225 15.9257 32.0246 15.8926 31.1969C15.8594 30.3691 15.1615 29.725 14.3338 29.7581L14.4538 32.7557ZM8.33337 25.7007L6.83411 25.6536C6.83289 25.6926 6.83319 25.7317 6.83501 25.7707L8.33337 25.7007ZM12.8813 20.3194L13.1776 21.7898C13.8777 21.6488 14.3813 21.0336 14.3813 20.3194H12.8813ZM12.8813 20.1444L11.383 20.0738C11.3818 20.0973 11.3813 20.1209 11.3813 20.1444H12.8813ZM18.9396 14.5902L18.8801 16.0891C18.9009 16.0899 18.9217 16.0903 18.9425 16.0902L18.9396 14.5902ZM21.1625 14.9757L20.6549 16.3871C21.3637 16.6421 22.1517 16.3317 22.4964 15.6619L21.1625 14.9757ZM28.7875 10.4236L28.7587 11.9233C28.7891 11.9239 28.8196 11.9235 28.8499 11.9223L28.7875 10.4236ZM37.1209 18.0632L38.6209 18.0618C38.6209 18.0397 38.6203 18.0175 38.6193 17.9954L37.1209 18.0632ZM36.775 20.2507L35.3486 19.7867C35.2117 20.2077 35.2677 20.6676 35.5017 21.0434C35.7356 21.4192 36.1236 21.6725 36.5618 21.7354L36.775 20.2507ZM41.6667 25.7007L43.1651 25.7707C43.167 25.73 43.1672 25.6892 43.1658 25.6485L41.6667 25.7007ZM35.6663 29.7581C34.8386 29.725 34.1406 30.3691 34.1075 31.1969C34.0743 32.0246 34.7185 32.7225 35.5463 32.7557L35.6663 29.7581ZM26.0607 36.4843C26.6465 35.8985 26.6465 34.9487 26.0607 34.363C25.4749 33.7772 24.5252 33.7772 23.9394 34.363L26.0607 36.4843ZM19.7727 38.5296C19.1869 39.1154 19.1869 40.0652 19.7727 40.651C20.3585 41.2367 21.3082 41.2367 21.894 40.651L19.7727 38.5296ZM19.3334 39.5903C19.3334 40.4187 20.0049 41.0903 20.8334 41.0903C21.6618 41.0903 22.3334 40.4187 22.3334 39.5903H19.3334ZM22.3334 22.9236C22.3334 22.0952 21.6618 21.4236 20.8334 21.4236C20.0049 21.4236 19.3334 22.0952 19.3334 22.9236H22.3334ZM19.7727 40.651C20.3585 41.2367 21.3082 41.2367 21.894 40.651C22.4798 40.0652 22.4798 39.1154 21.894 38.5296L19.7727 40.651ZM17.7274 34.363C17.1416 33.7772 16.1918 33.7772 15.606 34.363C15.0203 34.9487 15.0203 35.8985 15.606 36.4843L17.7274 34.363ZM23.9394 26.0296C23.3536 26.6154 23.3536 27.5652 23.9394 28.151C24.5252 28.7367 25.4749 28.7367 26.0607 28.151L23.9394 26.0296ZM30.2274 23.9843C30.8132 23.3985 30.8132 22.4488 30.2274 21.863C29.6416 21.2772 28.6918 21.2772 28.106 21.863L30.2274 23.9843ZM30.6667 22.9236C30.6667 22.0952 29.9951 21.4236 29.1667 21.4236C28.3383 21.4236 27.6667 22.0952 27.6667 22.9236H30.6667ZM27.6667 39.5903C27.6667 40.4187 28.3383 41.0903 29.1667 41.0903C29.9951 41.0903 30.6667 40.4187 30.6667 39.5903H27.6667ZM30.2274 21.863C29.6416 21.2772 28.6918 21.2772 28.106 21.863C27.5203 22.4488 27.5203 23.3985 28.106 23.9843L30.2274 21.863ZM32.2727 28.151C32.8585 28.7367 33.8082 28.7367 34.394 28.151C34.9798 27.5652 34.9798 26.6154 34.394 26.0296L32.2727 28.151ZM14.3338 29.7581C11.9537 29.8534 9.94297 28.0099 9.83174 25.6306L6.83501 25.7707C7.02325 29.7973 10.4261 32.917 14.4538 32.7557L14.3338 29.7581ZM9.83264 25.7477C9.89338 23.8118 11.2789 22.1724 13.1776 21.7898L12.585 18.849C9.32059 19.5067 6.93855 22.3252 6.83411 25.6536L9.83264 25.7477ZM14.3813 20.3194C14.3813 20.3193 14.3813 20.3192 14.3813 20.3191C14.3813 20.3189 14.3813 20.3188 14.3813 20.3187C14.3813 20.3186 14.3813 20.3185 14.3813 20.3184C14.3813 20.3183 14.3813 20.3181 14.3813 20.318C14.3813 20.3179 14.3813 20.3178 14.3813 20.3177C14.3813 20.3176 14.3813 20.3175 14.3813 20.3174C14.3813 20.3172 14.3813 20.3171 14.3813 20.317C14.3813 20.3169 14.3813 20.3168 14.3813 20.3167C14.3813 20.3166 14.3813 20.3164 14.3813 20.3163C14.3813 20.3162 14.3813 20.3161 14.3813 20.316C14.3813 20.3159 14.3813 20.3158 14.3813 20.3156C14.3813 20.3155 14.3813 20.3154 14.3813 20.3153C14.3813 20.3152 14.3813 20.3151 14.3813 20.315C14.3813 20.3148 14.3813 20.3147 14.3813 20.3146C14.3813 20.3145 14.3813 20.3144 14.3813 20.3143C14.3813 20.3142 14.3813 20.314 14.3813 20.3139C14.3813 20.3138 14.3813 20.3137 14.3813 20.3136C14.3813 20.3135 14.3813 20.3134 14.3813 20.3132C14.3813 20.3131 14.3813 20.313 14.3813 20.3129C14.3813 20.3128 14.3813 20.3127 14.3813 20.3126C14.3813 20.3125 14.3813 20.3123 14.3813 20.3122C14.3813 20.3121 14.3813 20.312 14.3813 20.3119C14.3813 20.3118 14.3813 20.3117 14.3813 20.3115C14.3813 20.3114 14.3813 20.3113 14.3813 20.3112C14.3813 20.3111 14.3813 20.311 14.3813 20.3109C14.3813 20.3107 14.3813 20.3106 14.3813 20.3105C14.3813 20.3104 14.3813 20.3103 14.3813 20.3102C14.3813 20.3101 14.3813 20.3099 14.3813 20.3098C14.3813 20.3097 14.3813 20.3096 14.3813 20.3095C14.3813 20.3094 14.3813 20.3093 14.3813 20.3091C14.3813 20.309 14.3813 20.3089 14.3813 20.3088C14.3813 20.3087 14.3813 20.3086 14.3813 20.3085C14.3813 20.3083 14.3813 20.3082 14.3813 20.3081C14.3813 20.308 14.3813 20.3079 14.3813 20.3078C14.3813 20.3077 14.3813 20.3076 14.3813 20.3074C14.3813 20.3073 14.3813 20.3072 14.3813 20.3071C14.3813 20.307 14.3813 20.3069 14.3813 20.3068C14.3813 20.3066 14.3813 20.3065 14.3813 20.3064C14.3813 20.3063 14.3813 20.3062 14.3813 20.3061C14.3813 20.306 14.3813 20.3058 14.3813 20.3057C14.3813 20.3056 14.3813 20.3055 14.3813 20.3054C14.3813 20.3053 14.3813 20.3052 14.3813 20.305C14.3813 20.3049 14.3813 20.3048 14.3813 20.3047C14.3813 20.3046 14.3813 20.3045 14.3813 20.3044C14.3813 20.3042 14.3813 20.3041 14.3813 20.304C14.3813 20.3039 14.3813 20.3038 14.3813 20.3037C14.3813 20.3036 14.3813 20.3035 14.3813 20.3033C14.3813 20.3032 14.3813 20.3031 14.3813 20.303C14.3813 20.3029 14.3813 20.3028 14.3813 20.3027C14.3813 20.3025 14.3813 20.3024 14.3813 20.3023C14.3813 20.3022 14.3813 20.3021 14.3813 20.302C14.3813 20.3019 14.3813 20.3017 14.3813 20.3016C14.3813 20.3015 14.3813 20.3014 14.3813 20.3013C14.3813 20.3012 14.3813 20.3011 14.3813 20.3009C14.3813 20.3008 14.3813 20.3007 14.3813 20.3006C14.3813 20.3005 14.3813 20.3004 14.3813 20.3003C14.3813 20.3001 14.3813 20.3 14.3813 20.2999C14.3813 20.2998 14.3813 20.2997 14.3813 20.2996C14.3813 20.2995 14.3813 20.2993 14.3813 20.2992C14.3813 20.2991 14.3813 20.299 14.3813 20.2989C14.3813 20.2988 14.3813 20.2987 14.3813 20.2986C14.3813 20.2984 14.3813 20.2983 14.3813 20.2982C14.3813 20.2981 14.3813 20.298 14.3813 20.2979C14.3813 20.2978 14.3813 20.2976 14.3813 20.2975C14.3813 20.2974 14.3813 20.2973 14.3813 20.2972C14.3813 20.2971 14.3813 20.297 14.3813 20.2968C14.3813 20.2967 14.3813 20.2966 14.3813 20.2965C14.3813 20.2964 14.3813 20.2963 14.3813 20.2962C14.3813 20.296 14.3813 20.2959 14.3813 20.2958C14.3813 20.2957 14.3813 20.2956 14.3813 20.2955C14.3813 20.2954 14.3813 20.2952 14.3813 20.2951C14.3813 20.295 14.3813 20.2949 14.3813 20.2948C14.3813 20.2947 14.3813 20.2946 14.3813 20.2944C14.3813 20.2943 14.3813 20.2942 14.3813 20.2941C14.3813 20.294 14.3813 20.2939 14.3813 20.2938C14.3813 20.2937 14.3813 20.2935 14.3813 20.2934C14.3813 20.2933 14.3813 20.2932 14.3813 20.2931C14.3813 20.293 14.3813 20.2929 14.3813 20.2927C14.3813 20.2926 14.3813 20.2925 14.3813 20.2924C14.3813 20.2923 14.3813 20.2922 14.3813 20.2921C14.3813 20.2919 14.3813 20.2918 14.3813 20.2917C14.3813 20.2916 14.3813 20.2915 14.3813 20.2914C14.3813 20.2913 14.3813 20.2911 14.3813 20.291C14.3813 20.2909 14.3813 20.2908 14.3813 20.2907C14.3813 20.2906 14.3813 20.2905 14.3813 20.2903C14.3813 20.2902 14.3813 20.2901 14.3813 20.29C14.3813 20.2899 14.3813 20.2898 14.3813 20.2897C14.3813 20.2896 14.3813 20.2894 14.3813 20.2893C14.3813 20.2892 14.3813 20.2891 14.3813 20.289C14.3813 20.2889 14.3813 20.2888 14.3813 20.2886C14.3813 20.2885 14.3813 20.2884 14.3813 20.2883C14.3813 20.2882 14.3813 20.2881 14.3813 20.288C14.3813 20.2878 14.3813 20.2877 14.3813 20.2876C14.3813 20.2875 14.3813 20.2874 14.3813 20.2873C14.3813 20.2872 14.3813 20.287 14.3813 20.2869C14.3813 20.2868 14.3813 20.2867 14.3813 20.2866C14.3813 20.2865 14.3813 20.2864 14.3813 20.2862C14.3813 20.2861 14.3813 20.286 14.3813 20.2859C14.3813 20.2858 14.3813 20.2857 14.3813 20.2856C14.3813 20.2854 14.3813 20.2853 14.3813 20.2852C14.3813 20.2851 14.3813 20.285 14.3813 20.2849C14.3813 20.2848 14.3813 20.2847 14.3813 20.2845C14.3813 20.2844 14.3813 20.2843 14.3813 20.2842C14.3813 20.2841 14.3813 20.284 14.3813 20.2839C14.3813 20.2837 14.3813 20.2836 14.3813 20.2835C14.3813 20.2834 14.3813 20.2833 14.3813 20.2832C14.3813 20.2831 14.3813 20.2829 14.3813 20.2828C14.3813 20.2827 14.3813 20.2826 14.3813 20.2825C14.3813 20.2824 14.3813 20.2823 14.3813 20.2821C14.3813 20.282 14.3813 20.2819 14.3813 20.2818C14.3813 20.2817 14.3813 20.2816 14.3813 20.2815C14.3813 20.2813 14.3813 20.2812 14.3813 20.2811C14.3813 20.281 14.3813 20.2809 14.3813 20.2808C14.3813 20.2807 14.3813 20.2806 14.3813 20.2804C14.3813 20.2803 14.3813 20.2802 14.3813 20.2801C14.3813 20.28 14.3813 20.2799 14.3813 20.2798C14.3813 20.2796 14.3813 20.2795 14.3813 20.2794C14.3813 20.2793 14.3813 20.2792 14.3813 20.2791C14.3813 20.279 14.3813 20.2788 14.3813 20.2787C14.3813 20.2786 14.3813 20.2785 14.3813 20.2784C14.3813 20.2783 14.3813 20.2782 14.3813 20.278C14.3813 20.2779 14.3813 20.2778 14.3813 20.2777C14.3813 20.2776 14.3813 20.2775 14.3813 20.2774C14.3813 20.2772 14.3813 20.2771 14.3813 20.277C14.3813 20.2769 14.3813 20.2768 14.3813 20.2767C14.3813 20.2766 14.3813 20.2764 14.3813 20.2763C14.3813 20.2762 14.3813 20.2761 14.3813 20.276C14.3813 20.2759 14.3813 20.2758 14.3813 20.2757C14.3813 20.2755 14.3813 20.2754 14.3813 20.2753C14.3813 20.2752 14.3813 20.2751 14.3813 20.275C14.3813 20.2749 14.3813 20.2747 14.3813 20.2746C14.3813 20.2745 14.3813 20.2744 14.3813 20.2743C14.3813 20.2742 14.3813 20.2741 14.3813 20.2739C14.3813 20.2738 14.3813 20.2737 14.3813 20.2736C14.3813 20.2735 14.3813 20.2734 14.3813 20.2733C14.3813 20.2731 14.3813 20.273 14.3813 20.2729C14.3813 20.2728 14.3813 20.2727 14.3813 20.2726C14.3813 20.2725 14.3813 20.2723 14.3813 20.2722C14.3813 20.2721 14.3813 20.272 14.3813 20.2719C14.3813 20.2718 14.3813 20.2717 14.3813 20.2715C14.3813 20.2714 14.3813 20.2713 14.3813 20.2712C14.3813 20.2711 14.3813 20.271 14.3813 20.2709C14.3813 20.2708 14.3813 20.2706 14.3813 20.2705C14.3813 20.2704 14.3813 20.2703 14.3813 20.2702C14.3813 20.2701 14.3813 20.27 14.3813 20.2698C14.3813 20.2697 14.3813 20.2696 14.3813 20.2695C14.3813 20.2694 14.3813 20.2693 14.3813 20.2692C14.3813 20.269 14.3813 20.2689 14.3813 20.2688C14.3813 20.2687 14.3813 20.2686 14.3813 20.2685C14.3813 20.2684 14.3813 20.2682 14.3813 20.2681C14.3813 20.268 14.3813 20.2679 14.3813 20.2678C14.3813 20.2677 14.3813 20.2676 14.3813 20.2674C14.3813 20.2673 14.3813 20.2672 14.3813 20.2671C14.3813 20.267 14.3813 20.2669 14.3813 20.2668C14.3813 20.2667 14.3813 20.2665 14.3813 20.2664C14.3813 20.2663 14.3813 20.2662 14.3813 20.2661C14.3813 20.266 14.3813 20.2659 14.3813 20.2657C14.3813 20.2656 14.3813 20.2655 14.3813 20.2654C14.3813 20.2653 14.3813 20.2652 14.3813 20.2651C14.3813 20.2649 14.3813 20.2648 14.3813 20.2647C14.3813 20.2646 14.3813 20.2645 14.3813 20.2644C14.3813 20.2643 14.3813 20.2641 14.3813 20.264C14.3813 20.2639 14.3813 20.2638 14.3813 20.2637C14.3813 20.2636 14.3813 20.2635 14.3813 20.2633C14.3813 20.2632 14.3813 20.2631 14.3813 20.263C14.3813 20.2629 14.3813 20.2628 14.3813 20.2627C14.3813 20.2625 14.3813 20.2624 14.3813 20.2623C14.3813 20.2622 14.3813 20.2621 14.3813 20.262C14.3813 20.2619 14.3813 20.2618 14.3813 20.2616C14.3813 20.2615 14.3813 20.2614 14.3813 20.2613C14.3813 20.2612 14.3813 20.2611 14.3813 20.261C14.3813 20.2608 14.3813 20.2607 14.3813 20.2606C14.3813 20.2605 14.3813 20.2604 14.3813 20.2603C14.3813 20.2602 14.3813 20.26 14.3813 20.2599C14.3813 20.2598 14.3813 20.2597 14.3813 20.2596C14.3813 20.2595 14.3813 20.2594 14.3813 20.2592C14.3813 20.2591 14.3813 20.259 14.3813 20.2589C14.3813 20.2588 14.3813 20.2587 14.3813 20.2586C14.3813 20.2584 14.3813 20.2583 14.3813 20.2582C14.3813 20.2581 14.3813 20.258 14.3813 20.2579C14.3813 20.2578 14.3813 20.2576 14.3813 20.2575C14.3813 20.2574 14.3813 20.2573 14.3813 20.2572C14.3813 20.2571 14.3813 20.257 14.3813 20.2569C14.3813 20.2567 14.3813 20.2566 14.3813 20.2565C14.3813 20.2564 14.3813 20.2563 14.3813 20.2562C14.3813 20.2561 14.3813 20.2559 14.3813 20.2558C14.3813 20.2557 14.3813 20.2556 14.3813 20.2555C14.3813 20.2554 14.3813 20.2553 14.3813 20.2551C14.3813 20.255 14.3813 20.2549 14.3813 20.2548C14.3813 20.2547 14.3813 20.2546 14.3813 20.2545C14.3813 20.2543 14.3813 20.2542 14.3813 20.2541C14.3813 20.254 14.3813 20.2539 14.3813 20.2538C14.3813 20.2537 14.3813 20.2535 14.3813 20.2534C14.3813 20.2533 14.3813 20.2532 14.3813 20.2531C14.3813 20.253 14.3813 20.2529 14.3813 20.2528C14.3813 20.2526 14.3813 20.2525 14.3813 20.2524C14.3813 20.2523 14.3813 20.2522 14.3813 20.2521C14.3813 20.252 14.3813 20.2518 14.3813 20.2517C14.3813 20.2516 14.3813 20.2515 14.3813 20.2514C14.3813 20.2513 14.3813 20.2512 14.3813 20.251C14.3813 20.2509 14.3813 20.2508 14.3813 20.2507C14.3813 20.2506 14.3813 20.2505 14.3813 20.2504C14.3813 20.2502 14.3813 20.2501 14.3813 20.25C14.3813 20.2499 14.3813 20.2498 14.3813 20.2497C14.3813 20.2496 14.3813 20.2494 14.3813 20.2493C14.3813 20.2492 14.3813 20.2491 14.3813 20.249C14.3813 20.2489 14.3813 20.2488 14.3813 20.2486C14.3813 20.2485 14.3813 20.2484 14.3813 20.2483C14.3813 20.2482 14.3813 20.2481 14.3813 20.248C14.3813 20.2479 14.3813 20.2477 14.3813 20.2476C14.3813 20.2475 14.3813 20.2474 14.3813 20.2473C14.3813 20.2472 14.3813 20.2471 14.3813 20.2469C14.3813 20.2468 14.3813 20.2467 14.3813 20.2466C14.3813 20.2465 14.3813 20.2464 14.3813 20.2463C14.3813 20.2461 14.3813 20.246 14.3813 20.2459C14.3813 20.2458 14.3813 20.2457 14.3813 20.2456C14.3813 20.2455 14.3813 20.2453 14.3813 20.2452C14.3813 20.2451 14.3813 20.245 14.3813 20.2449C14.3813 20.2448 14.3813 20.2447 14.3813 20.2445C14.3813 20.2444 14.3813 20.2443 14.3813 20.2442C14.3813 20.2441 14.3813 20.244 14.3813 20.2439C14.3813 20.2437 14.3813 20.2436 14.3813 20.2435C14.3813 20.2434 14.3813 20.2433 14.3813 20.2432C14.3813 20.2431 14.3813 20.243 14.3813 20.2428C14.3813 20.2427 14.3813 20.2426 14.3813 20.2425C14.3813 20.2424 14.3813 20.2423 14.3813 20.2422C14.3813 20.242 14.3813 20.2419 14.3813 20.2418C14.3813 20.2417 14.3813 20.2416 14.3813 20.2415C14.3813 20.2414 14.3813 20.2412 14.3813 20.2411C14.3813 20.241 14.3813 20.2409 14.3813 20.2408C14.3813 20.2407 14.3813 20.2406 14.3813 20.2404C14.3813 20.2403 14.3813 20.2402 14.3813 20.2401C14.3813 20.24 14.3813 20.2399 14.3813 20.2398C14.3813 20.2396 14.3813 20.2395 14.3813 20.2394C14.3813 20.2393 14.3813 20.2392 14.3813 20.2391C14.3813 20.239 14.3813 20.2389 14.3813 20.2387C14.3813 20.2386 14.3813 20.2385 14.3813 20.2384C14.3813 20.2383 14.3813 20.2382 14.3813 20.2381C14.3813 20.2379 14.3813 20.2378 14.3813 20.2377C14.3813 20.2376 14.3813 20.2375 14.3813 20.2374C14.3813 20.2373 14.3813 20.2371 14.3813 20.237C14.3813 20.2369 14.3813 20.2368 14.3813 20.2367C14.3813 20.2366 14.3813 20.2365 14.3813 20.2363C14.3813 20.2362 14.3813 20.2361 14.3813 20.236C14.3813 20.2359 14.3813 20.2358 14.3813 20.2357C14.3813 20.2355 14.3813 20.2354 14.3813 20.2353C14.3813 20.2352 14.3813 20.2351 14.3813 20.235C14.3813 20.2349 14.3813 20.2347 14.3813 20.2346C14.3813 20.2345 14.3813 20.2344 14.3813 20.2343C14.3813 20.2342 14.3813 20.2341 14.3813 20.234C14.3813 20.2338 14.3813 20.2337 14.3813 20.2336C14.3813 20.2335 14.3813 20.2334 14.3813 20.2333C14.3813 20.2332 14.3813 20.233 14.3813 20.2329C14.3813 20.2328 14.3813 20.2327 14.3813 20.2326C14.3813 20.2325 14.3813 20.2324 14.3813 20.2322C14.3813 20.2321 14.3813 20.232 14.3813 20.2319C14.3813 20.2318 14.3813 20.2317 14.3813 20.2316C14.3813 20.2314 14.3813 20.2313 14.3813 20.2312C14.3813 20.2311 14.3813 20.231 14.3813 20.2309C14.3813 20.2308 14.3813 20.2306 14.3813 20.2305C14.3813 20.2304 14.3813 20.2303 14.3813 20.2302C14.3813 20.2301 14.3813 20.23 14.3813 20.2298C14.3813 20.2297 14.3813 20.2296 14.3813 20.2295C14.3813 20.2294 14.3813 20.2293 14.3813 20.2292C14.3813 20.2291 14.3813 20.2289 14.3813 20.2288C14.3813 20.2287 14.3813 20.2286 14.3813 20.2285C14.3813 20.2284 14.3813 20.2283 14.3813 20.2281C14.3813 20.228 14.3813 20.2279 14.3813 20.2278C14.3813 20.2277 14.3813 20.2276 14.3813 20.2275C14.3813 20.2273 14.3813 20.2272 14.3813 20.2271C14.3813 20.227 14.3813 20.2269 14.3813 20.2268C14.3813 20.2267 14.3813 20.2265 14.3813 20.2264C14.3813 20.2263 14.3813 20.2262 14.3813 20.2261C14.3813 20.226 14.3813 20.2259 14.3813 20.2257C14.3813 20.2256 14.3813 20.2255 14.3813 20.2254C14.3813 20.2253 14.3813 20.2252 14.3813 20.2251C14.3813 20.225 14.3813 20.2248 14.3813 20.2247C14.3813 20.2246 14.3813 20.2245 14.3813 20.2244C14.3813 20.2243 14.3813 20.2242 14.3813 20.224C14.3813 20.2239 14.3813 20.2238 14.3813 20.2237C14.3813 20.2236 14.3813 20.2235 14.3813 20.2234C14.3813 20.2232 14.3813 20.2231 14.3813 20.223C14.3813 20.2229 14.3813 20.2228 14.3813 20.2227C14.3813 20.2226 14.3813 20.2224 14.3813 20.2223C14.3813 20.2222 14.3813 20.2221 14.3813 20.222C14.3813 20.2219 14.3813 20.2218 14.3813 20.2216C14.3813 20.2215 14.3813 20.2214 14.3813 20.2213C14.3813 20.2212 14.3813 20.2211 14.3813 20.221C14.3813 20.2208 14.3813 20.2207 14.3813 20.2206C14.3813 20.2205 14.3813 20.2204 14.3813 20.2203C14.3813 20.2202 14.3813 20.2201 14.3813 20.2199C14.3813 20.2198 14.3813 20.2197 14.3813 20.2196C14.3813 20.2195 14.3813 20.2194 14.3813 20.2193C14.3813 20.2191 14.3813 20.219 14.3813 20.2189C14.3813 20.2188 14.3813 20.2187 14.3813 20.2186C14.3813 20.2185 14.3813 20.2183 14.3813 20.2182C14.3813 20.2181 14.3813 20.218 14.3813 20.2179C14.3813 20.2178 14.3813 20.2177 14.3813 20.2175C14.3813 20.2174 14.3813 20.2173 14.3813 20.2172C14.3813 20.2171 14.3813 20.217 14.3813 20.2169C14.3813 20.2167 14.3813 20.2166 14.3813 20.2165C14.3813 20.2164 14.3813 20.2163 14.3813 20.2162C14.3813 20.2161 14.3813 20.216 14.3813 20.2158C14.3813 20.2157 14.3813 20.2156 14.3813 20.2155C14.3813 20.2154 14.3813 20.2153 14.3813 20.2152C14.3813 20.215 14.3813 20.2149 14.3813 20.2148C14.3813 20.2147 14.3813 20.2146 14.3813 20.2145C14.3813 20.2144 14.3813 20.2142 14.3813 20.2141C14.3813 20.214 14.3813 20.2139 14.3813 20.2138C14.3813 20.2137 14.3813 20.2136 14.3813 20.2134C14.3813 20.2133 14.3813 20.2132 14.3813 20.2131C14.3813 20.213 14.3813 20.2129 14.3813 20.2128C14.3813 20.2126 14.3813 20.2125 14.3813 20.2124C14.3813 20.2123 14.3813 20.2122 14.3813 20.2121C14.3813 20.212 14.3813 20.2118 14.3813 20.2117C14.3813 20.2116 14.3813 20.2115 14.3813 20.2114C14.3813 20.2113 14.3813 20.2112 14.3813 20.2111C14.3813 20.2109 14.3813 20.2108 14.3813 20.2107C14.3813 20.2106 14.3813 20.2105 14.3813 20.2104C14.3813 20.2103 14.3813 20.2101 14.3813 20.21C14.3813 20.2099 14.3813 20.2098 14.3813 20.2097C14.3813 20.2096 14.3813 20.2095 14.3813 20.2093C14.3813 20.2092 14.3813 20.2091 14.3813 20.209C14.3813 20.2089 14.3813 20.2088 14.3813 20.2087C14.3813 20.2085 14.3813 20.2084 14.3813 20.2083C14.3813 20.2082 14.3813 20.2081 14.3813 20.208C14.3813 20.2079 14.3813 20.2077 14.3813 20.2076C14.3813 20.2075 14.3813 20.2074 14.3813 20.2073C14.3813 20.2072 14.3813 20.2071 14.3813 20.207C14.3813 20.2068 14.3813 20.2067 14.3813 20.2066C14.3813 20.2065 14.3813 20.2064 14.3813 20.2063C14.3813 20.2062 14.3813 20.206 14.3813 20.2059C14.3813 20.2058 14.3813 20.2057 14.3813 20.2056C14.3813 20.2055 14.3813 20.2054 14.3813 20.2052C14.3813 20.2051 14.3813 20.205 14.3813 20.2049C14.3813 20.2048 14.3813 20.2047 14.3813 20.2046C14.3813 20.2044 14.3813 20.2043 14.3813 20.2042C14.3813 20.2041 14.3813 20.204 14.3813 20.2039C14.3813 20.2038 14.3813 20.2036 14.3813 20.2035C14.3813 20.2034 14.3813 20.2033 14.3813 20.2032C14.3813 20.2031 14.3813 20.203 14.3813 20.2028C14.3813 20.2027 14.3813 20.2026 14.3813 20.2025C14.3813 20.2024 14.3813 20.2023 14.3813 20.2022C14.3813 20.2021 14.3813 20.2019 14.3813 20.2018C14.3813 20.2017 14.3813 20.2016 14.3813 20.2015C14.3813 20.2014 14.3813 20.2013 14.3813 20.2011C14.3813 20.201 14.3813 20.2009 14.3813 20.2008C14.3813 20.2007 14.3813 20.2006 14.3813 20.2005C14.3813 20.2003 14.3813 20.2002 14.3813 20.2001C14.3813 20.2 14.3813 20.1999 14.3813 20.1998C14.3813 20.1997 14.3813 20.1995 14.3813 20.1994C14.3813 20.1993 14.3813 20.1992 14.3813 20.1991C14.3813 20.199 14.3813 20.1989 14.3813 20.1987C14.3813 20.1986 14.3813 20.1985 14.3813 20.1984C14.3813 20.1983 14.3813 20.1982 14.3813 20.1981C14.3813 20.1979 14.3813 20.1978 14.3813 20.1977C14.3813 20.1976 14.3813 20.1975 14.3813 20.1974C14.3813 20.1973 14.3813 20.1972 14.3813 20.197C14.3813 20.1969 14.3813 20.1968 14.3813 20.1967C14.3813 20.1966 14.3813 20.1965 14.3813 20.1964C14.3813 20.1962 14.3813 20.1961 14.3813 20.196C14.3813 20.1959 14.3813 20.1958 14.3813 20.1957C14.3813 20.1956 14.3813 20.1954 14.3813 20.1953C14.3813 20.1952 14.3813 20.1951 14.3813 20.195C14.3813 20.1949 14.3813 20.1948 14.3813 20.1946C14.3813 20.1945 14.3813 20.1944 14.3813 20.1943C14.3813 20.1942 14.3813 20.1941 14.3813 20.194C14.3813 20.1938 14.3813 20.1937 14.3813 20.1936C14.3813 20.1935 14.3813 20.1934 14.3813 20.1933C14.3813 20.1932 14.3813 20.1931 14.3813 20.1929C14.3813 20.1928 14.3813 20.1927 14.3813 20.1926C14.3813 20.1925 14.3813 20.1924 14.3813 20.1923C14.3813 20.1921 14.3813 20.192 14.3813 20.1919C14.3813 20.1918 14.3813 20.1917 14.3813 20.1916C14.3813 20.1915 14.3813 20.1913 14.3813 20.1912C14.3813 20.1911 14.3813 20.191 14.3813 20.1909C14.3813 20.1908 14.3813 20.1907 14.3813 20.1905C14.3813 20.1904 14.3813 20.1903 14.3813 20.1902C14.3813 20.1901 14.3813 20.19 14.3813 20.1899C14.3813 20.1897 14.3813 20.1896 14.3813 20.1895C14.3813 20.1894 14.3813 20.1893 14.3813 20.1892C14.3813 20.1891 14.3813 20.1889 14.3813 20.1888C14.3813 20.1887 14.3813 20.1886 14.3813 20.1885C14.3813 20.1884 14.3813 20.1883 14.3813 20.1882C14.3813 20.188 14.3813 20.1879 14.3813 20.1878C14.3813 20.1877 14.3813 20.1876 14.3813 20.1875C14.3813 20.1874 14.3813 20.1872 14.3813 20.1871C14.3813 20.187 14.3813 20.1869 14.3813 20.1868C14.3813 20.1867 14.3813 20.1866 14.3813 20.1864C14.3813 20.1863 14.3813 20.1862 14.3813 20.1861C14.3813 20.186 14.3813 20.1859 14.3813 20.1858C14.3813 20.1856 14.3813 20.1855 14.3813 20.1854C14.3813 20.1853 14.3813 20.1852 14.3813 20.1851C14.3813 20.185 14.3813 20.1848 14.3813 20.1847C14.3813 20.1846 14.3813 20.1845 14.3813 20.1844C14.3813 20.1843 14.3813 20.1842 14.3813 20.184C14.3813 20.1839 14.3813 20.1838 14.3813 20.1837C14.3813 20.1836 14.3813 20.1835 14.3813 20.1834C14.3813 20.1833 14.3813 20.1831 14.3813 20.183C14.3813 20.1829 14.3813 20.1828 14.3813 20.1827C14.3813 20.1826 14.3813 20.1825 14.3813 20.1823C14.3813 20.1822 14.3813 20.1821 14.3813 20.182C14.3813 20.1819 14.3813 20.1818 14.3813 20.1817C14.3813 20.1815 14.3813 20.1814 14.3813 20.1813C14.3813 20.1812 14.3813 20.1811 14.3813 20.181C14.3813 20.1809 14.3813 20.1807 14.3813 20.1806C14.3813 20.1805 14.3813 20.1804 14.3813 20.1803C14.3813 20.1802 14.3813 20.1801 14.3813 20.1799C14.3813 20.1798 14.3813 20.1797 14.3813 20.1796C14.3813 20.1795 14.3813 20.1794 14.3813 20.1793C14.3813 20.1792 14.3813 20.179 14.3813 20.1789C14.3813 20.1788 14.3813 20.1787 14.3813 20.1786C14.3813 20.1785 14.3813 20.1784 14.3813 20.1782C14.3813 20.1781 14.3813 20.178 14.3813 20.1779C14.3813 20.1778 14.3813 20.1777 14.3813 20.1776C14.3813 20.1774 14.3813 20.1773 14.3813 20.1772C14.3813 20.1771 14.3813 20.177 14.3813 20.1769C14.3813 20.1768 14.3813 20.1766 14.3813 20.1765C14.3813 20.1764 14.3813 20.1763 14.3813 20.1762C14.3813 20.1761 14.3813 20.176 14.3813 20.1758C14.3813 20.1757 14.3813 20.1756 14.3813 20.1755C14.3813 20.1754 14.3813 20.1753 14.3813 20.1752C14.3813 20.175 14.3813 20.1749 14.3813 20.1748C14.3813 20.1747 14.3813 20.1746 14.3813 20.1745C14.3813 20.1744 14.3813 20.1743 14.3813 20.1741C14.3813 20.174 14.3813 20.1739 14.3813 20.1738C14.3813 20.1737 14.3813 20.1736 14.3813 20.1735C14.3813 20.1733 14.3813 20.1732 14.3813 20.1731C14.3813 20.173 14.3813 20.1729 14.3813 20.1728C14.3813 20.1727 14.3813 20.1725 14.3813 20.1724C14.3813 20.1723 14.3813 20.1722 14.3813 20.1721C14.3813 20.172 14.3813 20.1719 14.3813 20.1717C14.3813 20.1716 14.3813 20.1715 14.3813 20.1714C14.3813 20.1713 14.3813 20.1712 14.3813 20.1711C14.3813 20.1709 14.3813 20.1708 14.3813 20.1707C14.3813 20.1706 14.3813 20.1705 14.3813 20.1704C14.3813 20.1703 14.3813 20.1701 14.3813 20.17C14.3813 20.1699 14.3813 20.1698 14.3813 20.1697C14.3813 20.1696 14.3813 20.1695 14.3813 20.1694C14.3813 20.1692 14.3813 20.1691 14.3813 20.169C14.3813 20.1689 14.3813 20.1688 14.3813 20.1687C14.3813 20.1686 14.3813 20.1684 14.3813 20.1683C14.3813 20.1682 14.3813 20.1681 14.3813 20.168C14.3813 20.1679 14.3813 20.1678 14.3813 20.1676C14.3813 20.1675 14.3813 20.1674 14.3813 20.1673C14.3813 20.1672 14.3813 20.1671 14.3813 20.167C14.3813 20.1668 14.3813 20.1667 14.3813 20.1666C14.3813 20.1665 14.3813 20.1664 14.3813 20.1663C14.3813 20.1662 14.3813 20.166 14.3813 20.1659C14.3813 20.1658 14.3813 20.1657 14.3813 20.1656C14.3813 20.1655 14.3813 20.1654 14.3813 20.1653C14.3813 20.1651 14.3813 20.165 14.3813 20.1649C14.3813 20.1648 14.3813 20.1647 14.3813 20.1646C14.3813 20.1645 14.3813 20.1643 14.3813 20.1642C14.3813 20.1641 14.3813 20.164 14.3813 20.1639C14.3813 20.1638 14.3813 20.1637 14.3813 20.1635C14.3813 20.1634 14.3813 20.1633 14.3813 20.1632C14.3813 20.1631 14.3813 20.163 14.3813 20.1629C14.3813 20.1627 14.3813 20.1626 14.3813 20.1625C14.3813 20.1624 14.3813 20.1623 14.3813 20.1622C14.3813 20.1621 14.3813 20.1619 14.3813 20.1618C14.3813 20.1617 14.3813 20.1616 14.3813 20.1615C14.3813 20.1614 14.3813 20.1613 14.3813 20.1611C14.3813 20.161 14.3813 20.1609 14.3813 20.1608C14.3813 20.1607 14.3813 20.1606 14.3813 20.1605C14.3813 20.1604 14.3813 20.1602 14.3813 20.1601C14.3813 20.16 14.3813 20.1599 14.3813 20.1598C14.3813 20.1597 14.3813 20.1596 14.3813 20.1594C14.3813 20.1593 14.3813 20.1592 14.3813 20.1591C14.3813 20.159 14.3813 20.1589 14.3813 20.1588C14.3813 20.1586 14.3813 20.1585 14.3813 20.1584C14.3813 20.1583 14.3813 20.1582 14.3813 20.1581C14.3813 20.158 14.3813 20.1578 14.3813 20.1577C14.3813 20.1576 14.3813 20.1575 14.3813 20.1574C14.3813 20.1573 14.3813 20.1572 14.3813 20.157C14.3813 20.1569 14.3813 20.1568 14.3813 20.1567C14.3813 20.1566 14.3813 20.1565 14.3813 20.1564C14.3813 20.1562 14.3813 20.1561 14.3813 20.156C14.3813 20.1559 14.3813 20.1558 14.3813 20.1557C14.3813 20.1556 14.3813 20.1555 14.3813 20.1553C14.3813 20.1552 14.3813 20.1551 14.3813 20.155C14.3813 20.1549 14.3813 20.1548 14.3813 20.1547C14.3813 20.1545 14.3813 20.1544 14.3813 20.1543C14.3813 20.1542 14.3813 20.1541 14.3813 20.154C14.3813 20.1539 14.3813 20.1537 14.3813 20.1536C14.3813 20.1535 14.3813 20.1534 14.3813 20.1533C14.3813 20.1532 14.3813 20.1531 14.3813 20.1529C14.3813 20.1528 14.3813 20.1527 14.3813 20.1526C14.3813 20.1525 14.3813 20.1524 14.3813 20.1523C14.3813 20.1521 14.3813 20.152 14.3813 20.1519C14.3813 20.1518 14.3813 20.1517 14.3813 20.1516C14.3813 20.1515 14.3813 20.1514 14.3813 20.1512C14.3813 20.1511 14.3813 20.151 14.3813 20.1509C14.3813 20.1508 14.3813 20.1507 14.3813 20.1506C14.3813 20.1504 14.3813 20.1503 14.3813 20.1502C14.3813 20.1501 14.3813 20.15 14.3813 20.1499C14.3813 20.1498 14.3813 20.1496 14.3813 20.1495C14.3813 20.1494 14.3813 20.1493 14.3813 20.1492C14.3813 20.1491 14.3813 20.149 14.3813 20.1488C14.3813 20.1487 14.3813 20.1486 14.3813 20.1485C14.3813 20.1484 14.3813 20.1483 14.3813 20.1482C14.3813 20.148 14.3813 20.1479 14.3813 20.1478C14.3813 20.1477 14.3813 20.1476 14.3813 20.1475C14.3813 20.1474 14.3813 20.1472 14.3813 20.1471C14.3813 20.147 14.3813 20.1469 14.3813 20.1468C14.3813 20.1467 14.3813 20.1466 14.3813 20.1465C14.3813 20.1463 14.3813 20.1462 14.3813 20.1461C14.3813 20.146 14.3813 20.1459 14.3813 20.1458C14.3813 20.1457 14.3813 20.1455 14.3813 20.1454C14.3813 20.1453 14.3813 20.1452 14.3813 20.1451C14.3813 20.145 14.3813 20.1449 14.3813 20.1447C14.3813 20.1446 14.3813 20.1445 14.3813 20.1444H11.3813C11.3813 20.1445 11.3813 20.1446 11.3813 20.1447C11.3813 20.1449 11.3813 20.145 11.3813 20.1451C11.3813 20.1452 11.3813 20.1453 11.3813 20.1454C11.3813 20.1455 11.3813 20.1457 11.3813 20.1458C11.3813 20.1459 11.3813 20.146 11.3813 20.1461C11.3813 20.1462 11.3813 20.1463 11.3813 20.1465C11.3813 20.1466 11.3813 20.1467 11.3813 20.1468C11.3813 20.1469 11.3813 20.147 11.3813 20.1471C11.3813 20.1472 11.3813 20.1474 11.3813 20.1475C11.3813 20.1476 11.3813 20.1477 11.3813 20.1478C11.3813 20.1479 11.3813 20.148 11.3813 20.1482C11.3813 20.1483 11.3813 20.1484 11.3813 20.1485C11.3813 20.1486 11.3813 20.1487 11.3813 20.1488C11.3813 20.149 11.3813 20.1491 11.3813 20.1492C11.3813 20.1493 11.3813 20.1494 11.3813 20.1495C11.3813 20.1496 11.3813 20.1498 11.3813 20.1499C11.3813 20.15 11.3813 20.1501 11.3813 20.1502C11.3813 20.1503 11.3813 20.1504 11.3813 20.1506C11.3813 20.1507 11.3813 20.1508 11.3813 20.1509C11.3813 20.151 11.3813 20.1511 11.3813 20.1512C11.3813 20.1514 11.3813 20.1515 11.3813 20.1516C11.3813 20.1517 11.3813 20.1518 11.3813 20.1519C11.3813 20.152 11.3813 20.1521 11.3813 20.1523C11.3813 20.1524 11.3813 20.1525 11.3813 20.1526C11.3813 20.1527 11.3813 20.1528 11.3813 20.1529C11.3813 20.1531 11.3813 20.1532 11.3813 20.1533C11.3813 20.1534 11.3813 20.1535 11.3813 20.1536C11.3813 20.1537 11.3813 20.1539 11.3813 20.154C11.3813 20.1541 11.3813 20.1542 11.3813 20.1543C11.3813 20.1544 11.3813 20.1545 11.3813 20.1547C11.3813 20.1548 11.3813 20.1549 11.3813 20.155C11.3813 20.1551 11.3813 20.1552 11.3813 20.1553C11.3813 20.1555 11.3813 20.1556 11.3813 20.1557C11.3813 20.1558 11.3813 20.1559 11.3813 20.156C11.3813 20.1561 11.3813 20.1562 11.3813 20.1564C11.3813 20.1565 11.3813 20.1566 11.3813 20.1567C11.3813 20.1568 11.3813 20.1569 11.3813 20.157C11.3813 20.1572 11.3813 20.1573 11.3813 20.1574C11.3813 20.1575 11.3813 20.1576 11.3813 20.1577C11.3813 20.1578 11.3813 20.158 11.3813 20.1581C11.3813 20.1582 11.3813 20.1583 11.3813 20.1584C11.3813 20.1585 11.3813 20.1586 11.3813 20.1588C11.3813 20.1589 11.3813 20.159 11.3813 20.1591C11.3813 20.1592 11.3813 20.1593 11.3813 20.1594C11.3813 20.1596 11.3813 20.1597 11.3813 20.1598C11.3813 20.1599 11.3813 20.16 11.3813 20.1601C11.3813 20.1602 11.3813 20.1604 11.3813 20.1605C11.3813 20.1606 11.3813 20.1607 11.3813 20.1608C11.3813 20.1609 11.3813 20.161 11.3813 20.1611C11.3813 20.1613 11.3813 20.1614 11.3813 20.1615C11.3813 20.1616 11.3813 20.1617 11.3813 20.1618C11.3813 20.1619 11.3813 20.1621 11.3813 20.1622C11.3813 20.1623 11.3813 20.1624 11.3813 20.1625C11.3813 20.1626 11.3813 20.1627 11.3813 20.1629C11.3813 20.163 11.3813 20.1631 11.3813 20.1632C11.3813 20.1633 11.3813 20.1634 11.3813 20.1635C11.3813 20.1637 11.3813 20.1638 11.3813 20.1639C11.3813 20.164 11.3813 20.1641 11.3813 20.1642C11.3813 20.1643 11.3813 20.1645 11.3813 20.1646C11.3813 20.1647 11.3813 20.1648 11.3813 20.1649C11.3813 20.165 11.3813 20.1651 11.3813 20.1653C11.3813 20.1654 11.3813 20.1655 11.3813 20.1656C11.3813 20.1657 11.3813 20.1658 11.3813 20.1659C11.3813 20.166 11.3813 20.1662 11.3813 20.1663C11.3813 20.1664 11.3813 20.1665 11.3813 20.1666C11.3813 20.1667 11.3813 20.1668 11.3813 20.167C11.3813 20.1671 11.3813 20.1672 11.3813 20.1673C11.3813 20.1674 11.3813 20.1675 11.3813 20.1676C11.3813 20.1678 11.3813 20.1679 11.3813 20.168C11.3813 20.1681 11.3813 20.1682 11.3813 20.1683C11.3813 20.1684 11.3813 20.1686 11.3813 20.1687C11.3813 20.1688 11.3813 20.1689 11.3813 20.169C11.3813 20.1691 11.3813 20.1692 11.3813 20.1694C11.3813 20.1695 11.3813 20.1696 11.3813 20.1697C11.3813 20.1698 11.3813 20.1699 11.3813 20.17C11.3813 20.1701 11.3813 20.1703 11.3813 20.1704C11.3813 20.1705 11.3813 20.1706 11.3813 20.1707C11.3813 20.1708 11.3813 20.1709 11.3813 20.1711C11.3813 20.1712 11.3813 20.1713 11.3813 20.1714C11.3813 20.1715 11.3813 20.1716 11.3813 20.1717C11.3813 20.1719 11.3813 20.172 11.3813 20.1721C11.3813 20.1722 11.3813 20.1723 11.3813 20.1724C11.3813 20.1725 11.3813 20.1727 11.3813 20.1728C11.3813 20.1729 11.3813 20.173 11.3813 20.1731C11.3813 20.1732 11.3813 20.1733 11.3813 20.1735C11.3813 20.1736 11.3813 20.1737 11.3813 20.1738C11.3813 20.1739 11.3813 20.174 11.3813 20.1741C11.3813 20.1743 11.3813 20.1744 11.3813 20.1745C11.3813 20.1746 11.3813 20.1747 11.3813 20.1748C11.3813 20.1749 11.3813 20.175 11.3813 20.1752C11.3813 20.1753 11.3813 20.1754 11.3813 20.1755C11.3813 20.1756 11.3813 20.1757 11.3813 20.1758C11.3813 20.176 11.3813 20.1761 11.3813 20.1762C11.3813 20.1763 11.3813 20.1764 11.3813 20.1765C11.3813 20.1766 11.3813 20.1768 11.3813 20.1769C11.3813 20.177 11.3813 20.1771 11.3813 20.1772C11.3813 20.1773 11.3813 20.1774 11.3813 20.1776C11.3813 20.1777 11.3813 20.1778 11.3813 20.1779C11.3813 20.178 11.3813 20.1781 11.3813 20.1782C11.3813 20.1784 11.3813 20.1785 11.3813 20.1786C11.3813 20.1787 11.3813 20.1788 11.3813 20.1789C11.3813 20.179 11.3813 20.1792 11.3813 20.1793C11.3813 20.1794 11.3813 20.1795 11.3813 20.1796C11.3813 20.1797 11.3813 20.1798 11.3813 20.1799C11.3813 20.1801 11.3813 20.1802 11.3813 20.1803C11.3813 20.1804 11.3813 20.1805 11.3813 20.1806C11.3813 20.1807 11.3813 20.1809 11.3813 20.181C11.3813 20.1811 11.3813 20.1812 11.3813 20.1813C11.3813 20.1814 11.3813 20.1815 11.3813 20.1817C11.3813 20.1818 11.3813 20.1819 11.3813 20.182C11.3813 20.1821 11.3813 20.1822 11.3813 20.1823C11.3813 20.1825 11.3813 20.1826 11.3813 20.1827C11.3813 20.1828 11.3813 20.1829 11.3813 20.183C11.3813 20.1831 11.3813 20.1833 11.3813 20.1834C11.3813 20.1835 11.3813 20.1836 11.3813 20.1837C11.3813 20.1838 11.3813 20.1839 11.3813 20.184C11.3813 20.1842 11.3813 20.1843 11.3813 20.1844C11.3813 20.1845 11.3813 20.1846 11.3813 20.1847C11.3813 20.1848 11.3813 20.185 11.3813 20.1851C11.3813 20.1852 11.3813 20.1853 11.3813 20.1854C11.3813 20.1855 11.3813 20.1856 11.3813 20.1858C11.3813 20.1859 11.3813 20.186 11.3813 20.1861C11.3813 20.1862 11.3813 20.1863 11.3813 20.1864C11.3813 20.1866 11.3813 20.1867 11.3813 20.1868C11.3813 20.1869 11.3813 20.187 11.3813 20.1871C11.3813 20.1872 11.3813 20.1874 11.3813 20.1875C11.3813 20.1876 11.3813 20.1877 11.3813 20.1878C11.3813 20.1879 11.3813 20.188 11.3813 20.1882C11.3813 20.1883 11.3813 20.1884 11.3813 20.1885C11.3813 20.1886 11.3813 20.1887 11.3813 20.1888C11.3813 20.1889 11.3813 20.1891 11.3813 20.1892C11.3813 20.1893 11.3813 20.1894 11.3813 20.1895C11.3813 20.1896 11.3813 20.1897 11.3813 20.1899C11.3813 20.19 11.3813 20.1901 11.3813 20.1902C11.3813 20.1903 11.3813 20.1904 11.3813 20.1905C11.3813 20.1907 11.3813 20.1908 11.3813 20.1909C11.3813 20.191 11.3813 20.1911 11.3813 20.1912C11.3813 20.1913 11.3813 20.1915 11.3813 20.1916C11.3813 20.1917 11.3813 20.1918 11.3813 20.1919C11.3813 20.192 11.3813 20.1921 11.3813 20.1923C11.3813 20.1924 11.3813 20.1925 11.3813 20.1926C11.3813 20.1927 11.3813 20.1928 11.3813 20.1929C11.3813 20.1931 11.3813 20.1932 11.3813 20.1933C11.3813 20.1934 11.3813 20.1935 11.3813 20.1936C11.3813 20.1937 11.3813 20.1938 11.3813 20.194C11.3813 20.1941 11.3813 20.1942 11.3813 20.1943C11.3813 20.1944 11.3813 20.1945 11.3813 20.1946C11.3813 20.1948 11.3813 20.1949 11.3813 20.195C11.3813 20.1951 11.3813 20.1952 11.3813 20.1953C11.3813 20.1954 11.3813 20.1956 11.3813 20.1957C11.3813 20.1958 11.3813 20.1959 11.3813 20.196C11.3813 20.1961 11.3813 20.1962 11.3813 20.1964C11.3813 20.1965 11.3813 20.1966 11.3813 20.1967C11.3813 20.1968 11.3813 20.1969 11.3813 20.197C11.3813 20.1972 11.3813 20.1973 11.3813 20.1974C11.3813 20.1975 11.3813 20.1976 11.3813 20.1977C11.3813 20.1978 11.3813 20.1979 11.3813 20.1981C11.3813 20.1982 11.3813 20.1983 11.3813 20.1984C11.3813 20.1985 11.3813 20.1986 11.3813 20.1987C11.3813 20.1989 11.3813 20.199 11.3813 20.1991C11.3813 20.1992 11.3813 20.1993 11.3813 20.1994C11.3813 20.1995 11.3813 20.1997 11.3813 20.1998C11.3813 20.1999 11.3813 20.2 11.3813 20.2001C11.3813 20.2002 11.3813 20.2003 11.3813 20.2005C11.3813 20.2006 11.3813 20.2007 11.3813 20.2008C11.3813 20.2009 11.3813 20.201 11.3813 20.2011C11.3813 20.2013 11.3813 20.2014 11.3813 20.2015C11.3813 20.2016 11.3813 20.2017 11.3813 20.2018C11.3813 20.2019 11.3813 20.2021 11.3813 20.2022C11.3813 20.2023 11.3813 20.2024 11.3813 20.2025C11.3813 20.2026 11.3813 20.2027 11.3813 20.2028C11.3813 20.203 11.3813 20.2031 11.3813 20.2032C11.3813 20.2033 11.3813 20.2034 11.3813 20.2035C11.3813 20.2036 11.3813 20.2038 11.3813 20.2039C11.3813 20.204 11.3813 20.2041 11.3813 20.2042C11.3813 20.2043 11.3813 20.2044 11.3813 20.2046C11.3813 20.2047 11.3813 20.2048 11.3813 20.2049C11.3813 20.205 11.3813 20.2051 11.3813 20.2052C11.3813 20.2054 11.3813 20.2055 11.3813 20.2056C11.3813 20.2057 11.3813 20.2058 11.3813 20.2059C11.3813 20.206 11.3813 20.2062 11.3813 20.2063C11.3813 20.2064 11.3813 20.2065 11.3813 20.2066C11.3813 20.2067 11.3813 20.2068 11.3813 20.207C11.3813 20.2071 11.3813 20.2072 11.3813 20.2073C11.3813 20.2074 11.3813 20.2075 11.3813 20.2076C11.3813 20.2077 11.3813 20.2079 11.3813 20.208C11.3813 20.2081 11.3813 20.2082 11.3813 20.2083C11.3813 20.2084 11.3813 20.2085 11.3813 20.2087C11.3813 20.2088 11.3813 20.2089 11.3813 20.209C11.3813 20.2091 11.3813 20.2092 11.3813 20.2093C11.3813 20.2095 11.3813 20.2096 11.3813 20.2097C11.3813 20.2098 11.3813 20.2099 11.3813 20.21C11.3813 20.2101 11.3813 20.2103 11.3813 20.2104C11.3813 20.2105 11.3813 20.2106 11.3813 20.2107C11.3813 20.2108 11.3813 20.2109 11.3813 20.2111C11.3813 20.2112 11.3813 20.2113 11.3813 20.2114C11.3813 20.2115 11.3813 20.2116 11.3813 20.2117C11.3813 20.2118 11.3813 20.212 11.3813 20.2121C11.3813 20.2122 11.3813 20.2123 11.3813 20.2124C11.3813 20.2125 11.3813 20.2126 11.3813 20.2128C11.3813 20.2129 11.3813 20.213 11.3813 20.2131C11.3813 20.2132 11.3813 20.2133 11.3813 20.2134C11.3813 20.2136 11.3813 20.2137 11.3813 20.2138C11.3813 20.2139 11.3813 20.214 11.3813 20.2141C11.3813 20.2142 11.3813 20.2144 11.3813 20.2145C11.3813 20.2146 11.3813 20.2147 11.3813 20.2148C11.3813 20.2149 11.3813 20.215 11.3813 20.2152C11.3813 20.2153 11.3813 20.2154 11.3813 20.2155C11.3813 20.2156 11.3813 20.2157 11.3813 20.2158C11.3813 20.216 11.3813 20.2161 11.3813 20.2162C11.3813 20.2163 11.3813 20.2164 11.3813 20.2165C11.3813 20.2166 11.3813 20.2167 11.3813 20.2169C11.3813 20.217 11.3813 20.2171 11.3813 20.2172C11.3813 20.2173 11.3813 20.2174 11.3813 20.2175C11.3813 20.2177 11.3813 20.2178 11.3813 20.2179C11.3813 20.218 11.3813 20.2181 11.3813 20.2182C11.3813 20.2183 11.3813 20.2185 11.3813 20.2186C11.3813 20.2187 11.3813 20.2188 11.3813 20.2189C11.3813 20.219 11.3813 20.2191 11.3813 20.2193C11.3813 20.2194 11.3813 20.2195 11.3813 20.2196C11.3813 20.2197 11.3813 20.2198 11.3813 20.2199C11.3813 20.2201 11.3813 20.2202 11.3813 20.2203C11.3813 20.2204 11.3813 20.2205 11.3813 20.2206C11.3813 20.2207 11.3813 20.2208 11.3813 20.221C11.3813 20.2211 11.3813 20.2212 11.3813 20.2213C11.3813 20.2214 11.3813 20.2215 11.3813 20.2216C11.3813 20.2218 11.3813 20.2219 11.3813 20.222C11.3813 20.2221 11.3813 20.2222 11.3813 20.2223C11.3813 20.2224 11.3813 20.2226 11.3813 20.2227C11.3813 20.2228 11.3813 20.2229 11.3813 20.223C11.3813 20.2231 11.3813 20.2232 11.3813 20.2234C11.3813 20.2235 11.3813 20.2236 11.3813 20.2237C11.3813 20.2238 11.3813 20.2239 11.3813 20.224C11.3813 20.2242 11.3813 20.2243 11.3813 20.2244C11.3813 20.2245 11.3813 20.2246 11.3813 20.2247C11.3813 20.2248 11.3813 20.225 11.3813 20.2251C11.3813 20.2252 11.3813 20.2253 11.3813 20.2254C11.3813 20.2255 11.3813 20.2256 11.3813 20.2257C11.3813 20.2259 11.3813 20.226 11.3813 20.2261C11.3813 20.2262 11.3813 20.2263 11.3813 20.2264C11.3813 20.2265 11.3813 20.2267 11.3813 20.2268C11.3813 20.2269 11.3813 20.227 11.3813 20.2271C11.3813 20.2272 11.3813 20.2273 11.3813 20.2275C11.3813 20.2276 11.3813 20.2277 11.3813 20.2278C11.3813 20.2279 11.3813 20.228 11.3813 20.2281C11.3813 20.2283 11.3813 20.2284 11.3813 20.2285C11.3813 20.2286 11.3813 20.2287 11.3813 20.2288C11.3813 20.2289 11.3813 20.2291 11.3813 20.2292C11.3813 20.2293 11.3813 20.2294 11.3813 20.2295C11.3813 20.2296 11.3813 20.2297 11.3813 20.2298C11.3813 20.23 11.3813 20.2301 11.3813 20.2302C11.3813 20.2303 11.3813 20.2304 11.3813 20.2305C11.3813 20.2306 11.3813 20.2308 11.3813 20.2309C11.3813 20.231 11.3813 20.2311 11.3813 20.2312C11.3813 20.2313 11.3813 20.2314 11.3813 20.2316C11.3813 20.2317 11.3813 20.2318 11.3813 20.2319C11.3813 20.232 11.3813 20.2321 11.3813 20.2322C11.3813 20.2324 11.3813 20.2325 11.3813 20.2326C11.3813 20.2327 11.3813 20.2328 11.3813 20.2329C11.3813 20.233 11.3813 20.2332 11.3813 20.2333C11.3813 20.2334 11.3813 20.2335 11.3813 20.2336C11.3813 20.2337 11.3813 20.2338 11.3813 20.234C11.3813 20.2341 11.3813 20.2342 11.3813 20.2343C11.3813 20.2344 11.3813 20.2345 11.3813 20.2346C11.3813 20.2347 11.3813 20.2349 11.3813 20.235C11.3813 20.2351 11.3813 20.2352 11.3813 20.2353C11.3813 20.2354 11.3813 20.2355 11.3813 20.2357C11.3813 20.2358 11.3813 20.2359 11.3813 20.236C11.3813 20.2361 11.3813 20.2362 11.3813 20.2363C11.3813 20.2365 11.3813 20.2366 11.3813 20.2367C11.3813 20.2368 11.3813 20.2369 11.3813 20.237C11.3813 20.2371 11.3813 20.2373 11.3813 20.2374C11.3813 20.2375 11.3813 20.2376 11.3813 20.2377C11.3813 20.2378 11.3813 20.2379 11.3813 20.2381C11.3813 20.2382 11.3813 20.2383 11.3813 20.2384C11.3813 20.2385 11.3813 20.2386 11.3813 20.2387C11.3813 20.2389 11.3813 20.239 11.3813 20.2391C11.3813 20.2392 11.3813 20.2393 11.3813 20.2394C11.3813 20.2395 11.3813 20.2396 11.3813 20.2398C11.3813 20.2399 11.3813 20.24 11.3813 20.2401C11.3813 20.2402 11.3813 20.2403 11.3813 20.2404C11.3813 20.2406 11.3813 20.2407 11.3813 20.2408C11.3813 20.2409 11.3813 20.241 11.3813 20.2411C11.3813 20.2412 11.3813 20.2414 11.3813 20.2415C11.3813 20.2416 11.3813 20.2417 11.3813 20.2418C11.3813 20.2419 11.3813 20.242 11.3813 20.2422C11.3813 20.2423 11.3813 20.2424 11.3813 20.2425C11.3813 20.2426 11.3813 20.2427 11.3813 20.2428C11.3813 20.243 11.3813 20.2431 11.3813 20.2432C11.3813 20.2433 11.3813 20.2434 11.3813 20.2435C11.3813 20.2436 11.3813 20.2437 11.3813 20.2439C11.3813 20.244 11.3813 20.2441 11.3813 20.2442C11.3813 20.2443 11.3813 20.2444 11.3813 20.2445C11.3813 20.2447 11.3813 20.2448 11.3813 20.2449C11.3813 20.245 11.3813 20.2451 11.3813 20.2452C11.3813 20.2453 11.3813 20.2455 11.3813 20.2456C11.3813 20.2457 11.3813 20.2458 11.3813 20.2459C11.3813 20.246 11.3813 20.2461 11.3813 20.2463C11.3813 20.2464 11.3813 20.2465 11.3813 20.2466C11.3813 20.2467 11.3813 20.2468 11.3813 20.2469C11.3813 20.2471 11.3813 20.2472 11.3813 20.2473C11.3813 20.2474 11.3813 20.2475 11.3813 20.2476C11.3813 20.2477 11.3813 20.2479 11.3813 20.248C11.3813 20.2481 11.3813 20.2482 11.3813 20.2483C11.3813 20.2484 11.3813 20.2485 11.3813 20.2486C11.3813 20.2488 11.3813 20.2489 11.3813 20.249C11.3813 20.2491 11.3813 20.2492 11.3813 20.2493C11.3813 20.2494 11.3813 20.2496 11.3813 20.2497C11.3813 20.2498 11.3813 20.2499 11.3813 20.25C11.3813 20.2501 11.3813 20.2502 11.3813 20.2504C11.3813 20.2505 11.3813 20.2506 11.3813 20.2507C11.3813 20.2508 11.3813 20.2509 11.3813 20.251C11.3813 20.2512 11.3813 20.2513 11.3813 20.2514C11.3813 20.2515 11.3813 20.2516 11.3813 20.2517C11.3813 20.2518 11.3813 20.252 11.3813 20.2521C11.3813 20.2522 11.3813 20.2523 11.3813 20.2524C11.3813 20.2525 11.3813 20.2526 11.3813 20.2528C11.3813 20.2529 11.3813 20.253 11.3813 20.2531C11.3813 20.2532 11.3813 20.2533 11.3813 20.2534C11.3813 20.2535 11.3813 20.2537 11.3813 20.2538C11.3813 20.2539 11.3813 20.254 11.3813 20.2541C11.3813 20.2542 11.3813 20.2543 11.3813 20.2545C11.3813 20.2546 11.3813 20.2547 11.3813 20.2548C11.3813 20.2549 11.3813 20.255 11.3813 20.2551C11.3813 20.2553 11.3813 20.2554 11.3813 20.2555C11.3813 20.2556 11.3813 20.2557 11.3813 20.2558C11.3813 20.2559 11.3813 20.2561 11.3813 20.2562C11.3813 20.2563 11.3813 20.2564 11.3813 20.2565C11.3813 20.2566 11.3813 20.2567 11.3813 20.2569C11.3813 20.257 11.3813 20.2571 11.3813 20.2572C11.3813 20.2573 11.3813 20.2574 11.3813 20.2575C11.3813 20.2576 11.3813 20.2578 11.3813 20.2579C11.3813 20.258 11.3813 20.2581 11.3813 20.2582C11.3813 20.2583 11.3813 20.2584 11.3813 20.2586C11.3813 20.2587 11.3813 20.2588 11.3813 20.2589C11.3813 20.259 11.3813 20.2591 11.3813 20.2592C11.3813 20.2594 11.3813 20.2595 11.3813 20.2596C11.3813 20.2597 11.3813 20.2598 11.3813 20.2599C11.3813 20.26 11.3813 20.2602 11.3813 20.2603C11.3813 20.2604 11.3813 20.2605 11.3813 20.2606C11.3813 20.2607 11.3813 20.2608 11.3813 20.261C11.3813 20.2611 11.3813 20.2612 11.3813 20.2613C11.3813 20.2614 11.3813 20.2615 11.3813 20.2616C11.3813 20.2618 11.3813 20.2619 11.3813 20.262C11.3813 20.2621 11.3813 20.2622 11.3813 20.2623C11.3813 20.2624 11.3813 20.2625 11.3813 20.2627C11.3813 20.2628 11.3813 20.2629 11.3813 20.263C11.3813 20.2631 11.3813 20.2632 11.3813 20.2633C11.3813 20.2635 11.3813 20.2636 11.3813 20.2637C11.3813 20.2638 11.3813 20.2639 11.3813 20.264C11.3813 20.2641 11.3813 20.2643 11.3813 20.2644C11.3813 20.2645 11.3813 20.2646 11.3813 20.2647C11.3813 20.2648 11.3813 20.2649 11.3813 20.2651C11.3813 20.2652 11.3813 20.2653 11.3813 20.2654C11.3813 20.2655 11.3813 20.2656 11.3813 20.2657C11.3813 20.2659 11.3813 20.266 11.3813 20.2661C11.3813 20.2662 11.3813 20.2663 11.3813 20.2664C11.3813 20.2665 11.3813 20.2667 11.3813 20.2668C11.3813 20.2669 11.3813 20.267 11.3813 20.2671C11.3813 20.2672 11.3813 20.2673 11.3813 20.2674C11.3813 20.2676 11.3813 20.2677 11.3813 20.2678C11.3813 20.2679 11.3813 20.268 11.3813 20.2681C11.3813 20.2682 11.3813 20.2684 11.3813 20.2685C11.3813 20.2686 11.3813 20.2687 11.3813 20.2688C11.3813 20.2689 11.3813 20.269 11.3813 20.2692C11.3813 20.2693 11.3813 20.2694 11.3813 20.2695C11.3813 20.2696 11.3813 20.2697 11.3813 20.2698C11.3813 20.27 11.3813 20.2701 11.3813 20.2702C11.3813 20.2703 11.3813 20.2704 11.3813 20.2705C11.3813 20.2706 11.3813 20.2708 11.3813 20.2709C11.3813 20.271 11.3813 20.2711 11.3813 20.2712C11.3813 20.2713 11.3813 20.2714 11.3813 20.2715C11.3813 20.2717 11.3813 20.2718 11.3813 20.2719C11.3813 20.272 11.3813 20.2721 11.3813 20.2722C11.3813 20.2723 11.3813 20.2725 11.3813 20.2726C11.3813 20.2727 11.3813 20.2728 11.3813 20.2729C11.3813 20.273 11.3813 20.2731 11.3813 20.2733C11.3813 20.2734 11.3813 20.2735 11.3813 20.2736C11.3813 20.2737 11.3813 20.2738 11.3813 20.2739C11.3813 20.2741 11.3813 20.2742 11.3813 20.2743C11.3813 20.2744 11.3813 20.2745 11.3813 20.2746C11.3813 20.2747 11.3813 20.2749 11.3813 20.275C11.3813 20.2751 11.3813 20.2752 11.3813 20.2753C11.3813 20.2754 11.3813 20.2755 11.3813 20.2757C11.3813 20.2758 11.3813 20.2759 11.3813 20.276C11.3813 20.2761 11.3813 20.2762 11.3813 20.2763C11.3813 20.2764 11.3813 20.2766 11.3813 20.2767C11.3813 20.2768 11.3813 20.2769 11.3813 20.277C11.3813 20.2771 11.3813 20.2772 11.3813 20.2774C11.3813 20.2775 11.3813 20.2776 11.3813 20.2777C11.3813 20.2778 11.3813 20.2779 11.3813 20.278C11.3813 20.2782 11.3813 20.2783 11.3813 20.2784C11.3813 20.2785 11.3813 20.2786 11.3813 20.2787C11.3813 20.2788 11.3813 20.279 11.3813 20.2791C11.3813 20.2792 11.3813 20.2793 11.3813 20.2794C11.3813 20.2795 11.3813 20.2796 11.3813 20.2798C11.3813 20.2799 11.3813 20.28 11.3813 20.2801C11.3813 20.2802 11.3813 20.2803 11.3813 20.2804C11.3813 20.2806 11.3813 20.2807 11.3813 20.2808C11.3813 20.2809 11.3813 20.281 11.3813 20.2811C11.3813 20.2812 11.3813 20.2813 11.3813 20.2815C11.3813 20.2816 11.3813 20.2817 11.3813 20.2818C11.3813 20.2819 11.3813 20.282 11.3813 20.2821C11.3813 20.2823 11.3813 20.2824 11.3813 20.2825C11.3813 20.2826 11.3813 20.2827 11.3813 20.2828C11.3813 20.2829 11.3813 20.2831 11.3813 20.2832C11.3813 20.2833 11.3813 20.2834 11.3813 20.2835C11.3813 20.2836 11.3813 20.2837 11.3813 20.2839C11.3813 20.284 11.3813 20.2841 11.3813 20.2842C11.3813 20.2843 11.3813 20.2844 11.3813 20.2845C11.3813 20.2847 11.3813 20.2848 11.3813 20.2849C11.3813 20.285 11.3813 20.2851 11.3813 20.2852C11.3813 20.2853 11.3813 20.2854 11.3813 20.2856C11.3813 20.2857 11.3813 20.2858 11.3813 20.2859C11.3813 20.286 11.3813 20.2861 11.3813 20.2862C11.3813 20.2864 11.3813 20.2865 11.3813 20.2866C11.3813 20.2867 11.3813 20.2868 11.3813 20.2869C11.3813 20.287 11.3813 20.2872 11.3813 20.2873C11.3813 20.2874 11.3813 20.2875 11.3813 20.2876C11.3813 20.2877 11.3813 20.2878 11.3813 20.288C11.3813 20.2881 11.3813 20.2882 11.3813 20.2883C11.3813 20.2884 11.3813 20.2885 11.3813 20.2886C11.3813 20.2888 11.3813 20.2889 11.3813 20.289C11.3813 20.2891 11.3813 20.2892 11.3813 20.2893C11.3813 20.2894 11.3813 20.2896 11.3813 20.2897C11.3813 20.2898 11.3813 20.2899 11.3813 20.29C11.3813 20.2901 11.3813 20.2902 11.3813 20.2903C11.3813 20.2905 11.3813 20.2906 11.3813 20.2907C11.3813 20.2908 11.3813 20.2909 11.3813 20.291C11.3813 20.2911 11.3813 20.2913 11.3813 20.2914C11.3813 20.2915 11.3813 20.2916 11.3813 20.2917C11.3813 20.2918 11.3813 20.2919 11.3813 20.2921C11.3813 20.2922 11.3813 20.2923 11.3813 20.2924C11.3813 20.2925 11.3813 20.2926 11.3813 20.2927C11.3813 20.2929 11.3813 20.293 11.3813 20.2931C11.3813 20.2932 11.3813 20.2933 11.3813 20.2934C11.3813 20.2935 11.3813 20.2937 11.3813 20.2938C11.3813 20.2939 11.3813 20.294 11.3813 20.2941C11.3813 20.2942 11.3813 20.2943 11.3813 20.2944C11.3813 20.2946 11.3813 20.2947 11.3813 20.2948C11.3813 20.2949 11.3813 20.295 11.3813 20.2951C11.3813 20.2952 11.3813 20.2954 11.3813 20.2955C11.3813 20.2956 11.3813 20.2957 11.3813 20.2958C11.3813 20.2959 11.3813 20.296 11.3813 20.2962C11.3813 20.2963 11.3813 20.2964 11.3813 20.2965C11.3813 20.2966 11.3813 20.2967 11.3813 20.2968C11.3813 20.297 11.3813 20.2971 11.3813 20.2972C11.3813 20.2973 11.3813 20.2974 11.3813 20.2975C11.3813 20.2976 11.3813 20.2978 11.3813 20.2979C11.3813 20.298 11.3813 20.2981 11.3813 20.2982C11.3813 20.2983 11.3813 20.2984 11.3813 20.2986C11.3813 20.2987 11.3813 20.2988 11.3813 20.2989C11.3813 20.299 11.3813 20.2991 11.3813 20.2992C11.3813 20.2993 11.3813 20.2995 11.3813 20.2996C11.3813 20.2997 11.3813 20.2998 11.3813 20.2999C11.3813 20.3 11.3813 20.3001 11.3813 20.3003C11.3813 20.3004 11.3813 20.3005 11.3813 20.3006C11.3813 20.3007 11.3813 20.3008 11.3813 20.3009C11.3813 20.3011 11.3813 20.3012 11.3813 20.3013C11.3813 20.3014 11.3813 20.3015 11.3813 20.3016C11.3813 20.3017 11.3813 20.3019 11.3813 20.302C11.3813 20.3021 11.3813 20.3022 11.3813 20.3023C11.3813 20.3024 11.3813 20.3025 11.3813 20.3027C11.3813 20.3028 11.3813 20.3029 11.3813 20.303C11.3813 20.3031 11.3813 20.3032 11.3813 20.3033C11.3813 20.3035 11.3813 20.3036 11.3813 20.3037C11.3813 20.3038 11.3813 20.3039 11.3813 20.304C11.3813 20.3041 11.3813 20.3042 11.3813 20.3044C11.3813 20.3045 11.3813 20.3046 11.3813 20.3047C11.3813 20.3048 11.3813 20.3049 11.3813 20.305C11.3813 20.3052 11.3813 20.3053 11.3813 20.3054C11.3813 20.3055 11.3813 20.3056 11.3813 20.3057C11.3813 20.3058 11.3813 20.306 11.3813 20.3061C11.3813 20.3062 11.3813 20.3063 11.3813 20.3064C11.3813 20.3065 11.3813 20.3066 11.3813 20.3068C11.3813 20.3069 11.3813 20.307 11.3813 20.3071C11.3813 20.3072 11.3813 20.3073 11.3813 20.3074C11.3813 20.3076 11.3813 20.3077 11.3813 20.3078C11.3813 20.3079 11.3813 20.308 11.3813 20.3081C11.3813 20.3082 11.3813 20.3083 11.3813 20.3085C11.3813 20.3086 11.3813 20.3087 11.3813 20.3088C11.3813 20.3089 11.3813 20.309 11.3813 20.3091C11.3813 20.3093 11.3813 20.3094 11.3813 20.3095C11.3813 20.3096 11.3813 20.3097 11.3813 20.3098C11.3813 20.3099 11.3813 20.3101 11.3813 20.3102C11.3813 20.3103 11.3813 20.3104 11.3813 20.3105C11.3813 20.3106 11.3813 20.3107 11.3813 20.3109C11.3813 20.311 11.3813 20.3111 11.3813 20.3112C11.3813 20.3113 11.3813 20.3114 11.3813 20.3115C11.3813 20.3117 11.3813 20.3118 11.3813 20.3119C11.3813 20.312 11.3813 20.3121 11.3813 20.3122C11.3813 20.3123 11.3813 20.3125 11.3813 20.3126C11.3813 20.3127 11.3813 20.3128 11.3813 20.3129C11.3813 20.313 11.3813 20.3131 11.3813 20.3132C11.3813 20.3134 11.3813 20.3135 11.3813 20.3136C11.3813 20.3137 11.3813 20.3138 11.3813 20.3139C11.3813 20.314 11.3813 20.3142 11.3813 20.3143C11.3813 20.3144 11.3813 20.3145 11.3813 20.3146C11.3813 20.3147 11.3813 20.3148 11.3813 20.315C11.3813 20.3151 11.3813 20.3152 11.3813 20.3153C11.3813 20.3154 11.3813 20.3155 11.3813 20.3156C11.3813 20.3158 11.3813 20.3159 11.3813 20.316C11.3813 20.3161 11.3813 20.3162 11.3813 20.3163C11.3813 20.3164 11.3813 20.3166 11.3813 20.3167C11.3813 20.3168 11.3813 20.3169 11.3813 20.317C11.3813 20.3171 11.3813 20.3172 11.3813 20.3174C11.3813 20.3175 11.3813 20.3176 11.3813 20.3177C11.3813 20.3178 11.3813 20.3179 11.3813 20.318C11.3813 20.3181 11.3813 20.3183 11.3813 20.3184C11.3813 20.3185 11.3813 20.3186 11.3813 20.3187C11.3813 20.3188 11.3813 20.3189 11.3813 20.3191C11.3813 20.3192 11.3813 20.3193 11.3813 20.3194H14.3813ZM14.3796 20.215C14.4917 17.8369 16.5013 15.9946 18.8801 16.0891L18.9991 13.0914C14.9734 12.9315 11.5726 16.0493 11.383 20.0738L14.3796 20.215ZM18.9425 16.0902C19.5262 16.0891 20.1056 16.1896 20.6549 16.3871L21.6702 13.5642C20.7934 13.2488 19.8685 13.0885 18.9368 13.0902L18.9425 16.0902ZM22.4964 15.6619C23.6997 13.3231 26.129 11.8728 28.7587 11.9233L28.8163 8.92384C25.0422 8.85136 21.5557 10.9328 19.8287 14.2894L22.4964 15.6619ZM28.8499 11.9223C32.4322 11.7731 35.4604 14.5492 35.6224 18.1309L38.6193 17.9954C38.3827 12.7627 33.9586 8.70694 28.7251 8.92487L28.8499 11.9223ZM35.6209 18.0645C35.6214 18.6493 35.5295 19.2305 35.3486 19.7867L38.2015 20.7146C38.4801 19.858 38.6217 18.9627 38.6209 18.0618L35.6209 18.0645ZM36.5618 21.7354C38.5779 22.0249 40.0968 23.7173 40.1676 25.7528L43.1658 25.6485C43.0445 22.1613 40.4422 19.2619 36.9883 18.7659L36.5618 21.7354ZM40.1683 25.6306C40.0571 28.0099 38.0463 29.8534 35.6663 29.7581L35.5463 32.7557C39.574 32.917 42.9768 29.7973 43.1651 25.7707L40.1683 25.6306ZM23.9394 34.363L19.7727 38.5296L21.894 40.651L26.0607 36.4843L23.9394 34.363ZM22.3334 39.5903V22.9236H19.3334V39.5903H22.3334ZM21.894 38.5296L17.7274 34.363L15.606 36.4843L19.7727 40.651L21.894 38.5296ZM26.0607 28.151L30.2274 23.9843L28.106 21.863L23.9394 26.0296L26.0607 28.151ZM27.6667 22.9236V39.5903H30.6667V22.9236H27.6667ZM28.106 23.9843L32.2727 28.151L34.394 26.0296L30.2274 21.863L28.106 23.9843Z" fill="url(#paint0_linear_370_74)"/>
</g>
<defs>
<linearGradient id="paint0_linear_370_74" x1="8.33337" y1="23.8827" x2="41.6965" y2="23.3361" gradientUnits="userSpaceOnUse">
<stop stop-color="#4650F6"/>
<stop offset="1" stop-color="#141B8C"/>
</linearGradient>
<clipPath id="clip0_370_74">
<rect width="50" height="50" fill="white"/>
</clipPath>
</defs>
</svg>
