<svg width="50" height="50" viewBox="0 0 50 50" fill="none" xmlns="http://www.w3.org/2000/svg">
<path d="M11.9167 31.2501C11.9167 30.4217 11.2452 29.7501 10.4167 29.7501C9.58832 29.7501 8.91675 30.4217 8.91675 31.2501H11.9167ZM10.4167 33.3334H8.91675H10.4167ZM41.0834 31.2501C41.0834 30.4217 40.4118 29.7501 39.5834 29.7501C38.755 29.7501 38.0834 30.4217 38.0834 31.2501H41.0834ZM23.8288 32.3964C23.3113 33.0433 23.4161 33.9872 24.063 34.5047C24.7099 35.0222 25.6539 34.9174 26.1714 34.2705L23.8288 32.3964ZM34.5047 23.8538C35.0222 23.2069 34.9173 22.263 34.2705 21.7454C33.6236 21.2279 32.6796 21.3328 32.1621 21.9797L34.5047 23.8538ZM23.8288 34.2705C24.3463 34.9174 25.2902 35.0222 25.9371 34.5047C26.584 33.9872 26.6889 33.0433 26.1714 32.3964L23.8288 34.2705ZM17.8381 21.9797C17.3205 21.3328 16.3766 21.2279 15.7297 21.7454C15.0828 22.263 14.9779 23.2069 15.4954 23.8538L17.8381 21.9797ZM23.5001 33.3334C23.5001 34.1618 24.1717 34.8334 25.0001 34.8334C25.8285 34.8334 26.5001 34.1618 26.5001 33.3334H23.5001ZM26.5001 10.4167C26.5001 9.58832 25.8285 8.91675 25.0001 8.91675C24.1717 8.91675 23.5001 9.58832 23.5001 10.4167H26.5001ZM8.91675 31.2501V33.3334H11.9167V31.2501H8.91675ZM8.91675 33.3334C8.91675 37.6136 12.3865 41.0834 16.6667 41.0834V38.0834C14.0434 38.0834 11.9167 35.9568 11.9167 33.3334H8.91675ZM16.6667 41.0834H33.3334V38.0834H16.6667V41.0834ZM33.3334 41.0834C37.6136 41.0834 41.0834 37.6136 41.0834 33.3334H38.0834C38.0834 35.9568 35.9568 38.0834 33.3334 38.0834V41.0834ZM41.0834 33.3334V31.2501H38.0834V33.3334H41.0834ZM26.1714 34.2705L34.5047 23.8538L32.1621 21.9797L23.8288 32.3964L26.1714 34.2705ZM26.1714 32.3964L17.8381 21.9797L15.4954 23.8538L23.8288 34.2705L26.1714 32.3964ZM26.5001 33.3334V10.4167H23.5001V33.3334H26.5001Z" fill="url(#paint0_linear_370_142)"/>
<defs>
<linearGradient id="paint0_linear_370_142" x1="10.4167" y1="23.8797" x2="39.6114" y2="23.4611" gradientUnits="userSpaceOnUse">
<stop stop-color="#4650F6"/>
<stop offset="1" stop-color="#141B8C"/>
</linearGradient>
</defs>
</svg>
