<svg width="50" height="50" viewBox="0 0 50 50" fill="none" xmlns="http://www.w3.org/2000/svg">
<g clip-path="url(#clip0_171_985)">
<path d="M9.83338 14.5833C9.83338 13.7548 9.1618 13.0833 8.33338 13.0833C7.50495 13.0833 6.83338 13.7548 6.83338 14.5833H9.83338ZM8.33338 36.152L9.83338 36.1538V36.152H8.33338ZM9.3342 38.5765L10.3961 37.5172L9.3342 38.5765ZM11.7563 39.5833L11.7545 41.0833H11.7563V39.5833ZM38.2438 39.5833V41.0833L38.2456 41.0832L38.2438 39.5833ZM40.6659 38.5765L39.6039 37.5172V37.5172L40.6659 38.5765ZM41.6667 36.152H40.1667L40.1667 36.1538L41.6667 36.152ZM41.6667 18.0145L40.1667 18.0127V18.0145H41.6667ZM40.6659 15.59L39.6039 16.6493L39.6039 16.6493L40.6659 15.59ZM38.2438 14.5833L38.2456 13.0833H38.2438V14.5833ZM26.1167 13.0833C25.2883 13.0833 24.6167 13.7548 24.6167 14.5833C24.6167 15.4117 25.2883 16.0833 26.1167 16.0833V13.0833ZM6.83338 14.5833C6.83338 15.4117 7.50495 16.0833 8.33338 16.0833C9.1618 16.0833 9.83338 15.4117 9.83338 14.5833H6.83338ZM8.33338 11.7645H9.83338L9.83338 11.7627L8.33338 11.7645ZM11.7563 8.33325V6.83325L11.7545 6.83325L11.7563 8.33325ZM22.6938 8.33325L22.6956 6.83325H22.6938V8.33325ZM26.1167 11.7645L24.6167 11.7627V11.7645H26.1167ZM24.6167 14.5833C24.6167 15.4117 25.2883 16.0833 26.1167 16.0833C26.9451 16.0833 27.6167 15.4117 27.6167 14.5833H24.6167ZM8.33338 13.0833C7.50495 13.0833 6.83338 13.7548 6.83338 14.5833C6.83338 15.4117 7.50495 16.0833 8.33338 16.0833V13.0833ZM26.1167 16.0833C26.9451 16.0833 27.6167 15.4117 27.6167 14.5833C27.6167 13.7548 26.9451 13.0833 26.1167 13.0833V16.0833ZM6.83338 14.5833V36.152H9.83338V14.5833H6.83338ZM6.83338 36.1502C6.83179 37.4569 7.34937 38.7108 8.27225 39.6359L10.3961 37.5172C10.0352 37.1553 9.83275 36.6649 9.83338 36.1538L6.83338 36.1502ZM8.27225 39.6359C9.19513 40.561 10.4477 41.0817 11.7545 41.0832L11.7581 38.0833C11.247 38.0826 10.7571 37.879 10.3961 37.5172L8.27225 39.6359ZM11.7563 41.0833H38.2438V38.0833H11.7563V41.0833ZM38.2456 41.0832C39.5524 41.0817 40.805 40.561 41.7278 39.6359L39.6039 37.5172C39.243 37.879 38.7531 38.0826 38.242 38.0833L38.2456 41.0832ZM41.7278 39.6359C42.6507 38.7108 43.1683 37.4569 43.1667 36.1502L40.1667 36.1538C40.1673 36.6649 39.9649 37.1553 39.6039 37.5172L41.7278 39.6359ZM43.1667 36.152V18.0145H40.1667V36.152H43.1667ZM43.1667 18.0163C43.1683 16.7096 42.6507 15.4557 41.7278 14.5306L39.6039 16.6493C39.9649 17.0112 40.1673 17.5016 40.1667 18.0127L43.1667 18.0163ZM41.7278 14.5306C40.805 13.6055 39.5524 13.0848 38.2456 13.0833L38.242 16.0833C38.7531 16.0839 39.243 16.2875 39.6039 16.6493L41.7278 14.5306ZM38.2438 13.0833H26.1167V16.0833H38.2438V13.0833ZM9.83338 14.5833V11.7645H6.83338V14.5833H9.83338ZM9.83338 11.7627C9.83275 11.2516 10.0352 10.7612 10.3961 10.3993L8.27225 8.2806C7.34937 9.20573 6.83179 10.4596 6.83338 11.7663L9.83338 11.7627ZM10.3961 10.3993C10.7571 10.0375 11.247 9.83387 11.7581 9.83325L11.7545 6.83325C10.4477 6.83484 9.19513 7.35547 8.27225 8.2806L10.3961 10.3993ZM11.7563 9.83325H22.6938V6.83325H11.7563V9.83325ZM22.692 9.83325C23.2031 9.83387 23.693 10.0375 24.0539 10.3993L26.1778 8.2806C25.255 7.35547 24.0024 6.83484 22.6956 6.83325L22.692 9.83325ZM24.0539 10.3993C24.4149 10.7612 24.6173 11.2516 24.6167 11.7627L27.6167 11.7663C27.6183 10.4596 27.1007 9.20573 26.1778 8.2806L24.0539 10.3993ZM24.6167 11.7645V14.5833H27.6167V11.7645H24.6167ZM8.33338 16.0833H26.1167V13.0833H8.33338V16.0833Z" fill="url(#paint0_linear_171_985)"/>
<path d="M19.7727 23.9393C19.1869 24.525 19.1869 25.4748 19.7727 26.0606C20.3585 26.6464 21.3082 26.6464 21.894 26.0606L19.7727 23.9393ZM26.0607 21.8939C26.6465 21.3081 26.6465 20.3584 26.0607 19.7726C25.4749 19.1868 24.5252 19.1868 23.9394 19.7726L26.0607 21.8939ZM26.0607 19.7726C25.4749 19.1868 24.5252 19.1868 23.9394 19.7726C23.3536 20.3584 23.3536 21.3081 23.9394 21.8939L26.0607 19.7726ZM28.106 26.0606C28.6918 26.6464 29.6416 26.6464 30.2274 26.0606C30.8132 25.4748 30.8132 24.525 30.2274 23.9393L28.106 26.0606ZM26.5 20.8333C26.5 20.0048 25.8285 19.3333 25 19.3333C24.1716 19.3333 23.5 20.0048 23.5 20.8333H26.5ZM23.5 33.3333C23.5 34.1617 24.1716 34.8333 25 34.8333C25.8285 34.8333 26.5 34.1617 26.5 33.3333H23.5ZM21.894 26.0606L26.0607 21.8939L23.9394 19.7726L19.7727 23.9393L21.894 26.0606ZM23.9394 21.8939L28.106 26.0606L30.2274 23.9393L26.0607 19.7726L23.9394 21.8939ZM23.5 20.8333V33.3333H26.5V20.8333H23.5Z" fill="url(#paint1_linear_171_985)"/>
</g>
<defs>
<linearGradient id="paint0_linear_171_985" x1="8.33337" y1="22.7578" x2="41.6977" y2="22.2475" gradientUnits="userSpaceOnUse">
<stop stop-color="#4650F6"/>
<stop offset="1" stop-color="#141B8C"/>
</linearGradient>
<linearGradient id="paint1_linear_171_985" x1="20.8334" y1="26.6031" x2="29.1756" y2="26.5233" gradientUnits="userSpaceOnUse">
<stop stop-color="#4650F6"/>
<stop offset="1" stop-color="#141B8C"/>
</linearGradient>
<clipPath id="clip0_171_985">
<rect width="50" height="50" fill="white"/>
</clipPath>
</defs>
</svg>
