<svg width="50" height="50" viewBox="0 0 50 50" fill="none" xmlns="http://www.w3.org/2000/svg">
<path fill-rule="evenodd" clip-rule="evenodd" d="M35.4167 10.4165H14.5833C9.98096 10.4165 6.25 14.1475 6.25 18.7498V31.2498C6.25 35.8522 9.98096 39.5832 14.5833 39.5832H35.4167C40.019 39.5832 43.75 35.8522 43.75 31.2498V18.7498C43.75 14.1475 40.019 10.4165 35.4167 10.4165Z" stroke="url(#paint0_linear_370_185)" stroke-width="3" stroke-linecap="round" stroke-linejoin="round"/>
<path d="M28.2874 24.9788C28.2757 24.1505 27.5947 23.4884 26.7664 23.5001C25.938 23.5118 25.276 24.1928 25.2876 25.0211L28.2874 24.9788ZM32.1437 30.2083L32.1519 28.7083C32.1422 28.7083 32.1326 28.7083 32.1229 28.7084L32.1437 30.2083ZM33.6729 30L33.2703 28.555L33.2638 28.5568L33.6729 30ZM39 25.0112C39.0062 24.1828 38.3397 23.5062 37.5113 23.5C36.6829 23.4938 36.0063 24.1603 36 24.9887L39 25.0112ZM36.0001 25.0211C36.0118 25.8495 36.6928 26.5115 37.5211 26.4998C38.3495 26.4881 39.0115 25.8072 38.9999 24.9788L36.0001 25.0211ZM32.1437 19.7916L32.1356 21.2916C32.1453 21.2917 32.1549 21.2916 32.1646 21.2915L32.1437 19.7916ZM30.6146 20L31.0166 21.4451L31.0237 21.4431L30.6146 20ZM25.2855 24.9885C25.2791 25.8169 25.9456 26.4936 26.774 26.4999C27.6024 26.5062 28.2791 25.8398 28.2854 25.0114L25.2855 24.9885ZM14 19.7916C14 18.9632 13.3284 18.2916 12.5 18.2916C11.6716 18.2916 11 18.9632 11 19.7916H14ZM11 30.2083C11 31.0367 11.6716 31.7083 12.5 31.7083C13.3284 31.7083 14 31.0367 14 30.2083H11ZM23.2292 21.2916C24.0576 21.2916 24.7292 20.6201 24.7292 19.7916C24.7292 18.9632 24.0576 18.2916 23.2292 18.2916V21.2916ZM19.7917 19.7916L19.7329 21.2905C19.7525 21.2912 19.7721 21.2916 19.7917 21.2916V19.7916ZM17.8455 20.5106L18.8646 21.6113L18.8646 21.6113L17.8455 20.5106ZM16.9792 22.3958L15.4802 22.3393C15.4788 22.3769 15.4788 22.4147 15.4802 22.4523L16.9792 22.3958ZM17.8455 24.281L18.8646 23.1803H18.8646L17.8455 24.281ZM19.7917 25V23.5C19.7721 23.5 19.7525 23.5003 19.7329 23.5011L19.7917 25ZM20.4167 25V26.5C20.4363 26.5 20.4558 26.4996 20.4754 26.4988L20.4167 25ZM22.3628 25.719L21.3437 26.8196L22.3628 25.719ZM23.2292 27.6041L24.7281 27.6607C24.7295 27.623 24.7295 27.5853 24.7281 27.5476L23.2292 27.6041ZM22.3628 29.4893L21.3437 28.3887V28.3887L22.3628 29.4893ZM20.4167 30.2083L20.4754 28.7094C20.4558 28.7087 20.4363 28.7083 20.4167 28.7083V30.2083ZM16.9792 28.7083C16.1507 28.7083 15.4792 29.3799 15.4792 30.2083C15.4792 31.0367 16.1507 31.7083 16.9792 31.7083V28.7083ZM25.2876 25.0211C25.3405 28.7665 28.4192 31.7602 32.1646 31.7082L32.1229 28.7084C30.0339 28.7375 28.3168 27.0678 28.2874 24.9788L25.2876 25.0211ZM32.1356 31.7083C32.7937 31.7118 33.4489 31.6226 34.082 31.4431L33.2638 28.5568C32.9021 28.6594 32.5278 28.7104 32.1519 28.7083L32.1356 31.7083ZM34.0755 31.4449C36.9684 30.6389 38.9774 28.0142 39 25.0112L36 24.9887C35.9875 26.6533 34.8739 28.1082 33.2703 28.555L34.0755 31.4449ZM38.9999 24.9788C38.947 21.2334 35.8683 18.2397 32.1229 18.2918L32.1646 21.2915C34.2536 21.2624 35.9707 22.9321 36.0001 25.0211L38.9999 24.9788ZM32.1519 18.2917C31.4938 18.2881 30.8386 18.3774 30.2055 18.5568L31.0237 21.4431C31.3854 21.3406 31.7597 21.2896 32.1356 21.2916L32.1519 18.2917ZM30.2126 18.5548C27.3187 19.3598 25.3084 21.9848 25.2855 24.9885L28.2854 25.0114C28.2981 23.3464 29.4124 21.8913 31.0166 21.4451L30.2126 18.5548ZM11 19.7916V30.2083H14V19.7916H11ZM23.2292 18.2916H19.7917V21.2916H23.2292V18.2916ZM19.8504 18.2928C18.7341 18.249 17.6462 18.6509 16.8264 19.41L18.8646 21.6113C19.1 21.3933 19.4124 21.2779 19.7329 21.2905L19.8504 18.2928ZM16.8264 19.41C16.0066 20.169 15.5223 21.2229 15.4802 22.3393L18.4781 22.4523C18.4902 22.1318 18.6292 21.8292 18.8646 21.6113L16.8264 19.41ZM15.4802 22.4523C15.5223 23.5687 16.0066 24.6226 16.8264 25.3816L18.8646 23.1803C18.6292 22.9624 18.4902 22.6598 18.4781 22.3393L15.4802 22.4523ZM16.8264 25.3816C17.6462 26.1407 18.7341 26.5426 19.8504 26.4988L19.7329 23.5011C19.4124 23.5137 19.1 23.3983 18.8646 23.1803L16.8264 25.3816ZM19.7917 26.5H20.4167V23.5H19.7917V26.5ZM20.4754 26.4988C20.796 26.4862 21.1083 26.6017 21.3437 26.8196L23.3819 24.6183C22.5622 23.8593 21.4742 23.4574 20.3579 23.5011L20.4754 26.4988ZM21.3437 26.8196C21.5791 27.0375 21.7181 27.3401 21.7302 27.6607L24.7281 27.5476C24.686 26.4312 24.2017 25.3773 23.3819 24.6183L21.3437 26.8196ZM21.7302 27.5476C21.7181 27.8681 21.5791 28.1707 21.3437 28.3887L23.3819 30.59C24.2017 29.8309 24.686 28.7771 24.7281 27.6607L21.7302 27.5476ZM21.3437 28.3887C21.1083 28.6066 20.796 28.722 20.4754 28.7094L20.3579 31.7071C21.4742 31.7509 22.5622 31.349 23.3819 30.59L21.3437 28.3887ZM20.4167 28.7083H16.9792V31.7083H20.4167V28.7083Z" fill="url(#paint1_linear_370_185)"/>
<defs>
<linearGradient id="paint0_linear_370_185" x1="6.25" y1="23.8794" x2="43.7809" y2="23.1875" gradientUnits="userSpaceOnUse">
<stop stop-color="#4650F6"/>
<stop offset="1" stop-color="#141B8C"/>
</linearGradient>
<linearGradient id="paint1_linear_370_185" x1="12.5" y1="24.5997" x2="37.4995" y2="23.7397" gradientUnits="userSpaceOnUse">
<stop stop-color="#4650F6"/>
<stop offset="1" stop-color="#141B8C"/>
</linearGradient>
</defs>
</svg>
