<svg width="50" height="50" viewBox="0 0 50 50" fill="none" xmlns="http://www.w3.org/2000/svg">
<g clip-path="url(#clip0_370_77)">
<path fill-rule="evenodd" clip-rule="evenodd" d="M25 22.0832L10.4166 16.2498L25 10.4165L39.5833 16.2498L25 22.0832Z" stroke="url(#paint0_linear_370_77)" stroke-width="3" stroke-linecap="round" stroke-linejoin="round"/>
<path d="M10.9737 32.3573C10.2045 32.0496 9.33158 32.4237 9.02391 33.1929C8.71624 33.9621 9.09036 34.835 9.85954 35.1427L10.9737 32.3573ZM25 39.5833L24.4429 40.976C24.8005 41.1191 25.1994 41.1191 25.557 40.976L25 39.5833ZM40.1404 35.1427C40.9096 34.835 41.2837 33.9621 40.976 33.1929C40.6683 32.4237 39.7954 32.0496 39.0262 32.3573L40.1404 35.1427ZM10.9737 23.6073C10.2045 23.2996 9.33158 23.6737 9.02391 24.4429C8.71624 25.2121 9.09036 26.085 9.85954 26.3927L10.9737 23.6073ZM25 30.8333L24.4429 32.226C24.8005 32.3691 25.1994 32.3691 25.557 32.226L25 30.8333ZM40.1404 26.3927C40.9096 26.085 41.2837 25.2121 40.976 24.4429C40.6683 23.6737 39.7954 23.2996 39.0262 23.6073L40.1404 26.3927ZM9.85954 35.1427L24.4429 40.976L25.557 38.1906L10.9737 32.3573L9.85954 35.1427ZM25.557 40.976L40.1404 35.1427L39.0262 32.3573L24.4429 38.1906L25.557 40.976ZM9.85954 26.3927L24.4429 32.226L25.557 29.4406L10.9737 23.6073L9.85954 26.3927ZM25.557 32.226L40.1404 26.3927L39.0262 23.6073L24.4429 29.4406L25.557 32.226Z" fill="url(#paint1_linear_370_77)"/>
</g>
<defs>
<linearGradient id="paint0_linear_370_77" x1="10.4166" y1="15.8017" x2="39.5798" y2="14.7563" gradientUnits="userSpaceOnUse">
<stop stop-color="#4650F6"/>
<stop offset="1" stop-color="#141B8C"/>
</linearGradient>
<linearGradient id="paint1_linear_370_77" x1="10.4166" y1="31.7315" x2="39.5932" y2="30.8948" gradientUnits="userSpaceOnUse">
<stop stop-color="#4650F6"/>
<stop offset="1" stop-color="#141B8C"/>
</linearGradient>
<clipPath id="clip0_370_77">
<rect width="50" height="50" fill="white"/>
</clipPath>
</defs>
</svg>
