<svg width="50" height="50" viewBox="0 0 50 50" fill="none" xmlns="http://www.w3.org/2000/svg">
<g clip-path="url(#clip0_171_944)">
<path fill-rule="evenodd" clip-rule="evenodd" d="M22.8126 44.5834C21.7761 44.5834 20.8919 43.8333 20.7231 42.8106C20.5678 41.9833 19.9721 41.3074 19.1709 41.0492C18.518 40.8251 17.8797 40.5607 17.2596 40.2575C16.5217 39.8801 15.6365 39.9365 14.9524 40.4045C14.1247 40.9998 12.9875 40.9076 12.2664 40.1868L9.46164 37.3821C8.70681 36.6272 8.60873 35.4371 9.2298 34.5688C9.70878 33.869 9.77777 32.9668 9.41075 32.2023C9.16893 31.6712 8.95563 31.1276 8.77176 30.5737C8.50843 29.701 7.78156 29.0471 6.88589 28.8773C5.80578 28.7047 5.00842 27.777 5.00003 26.6832V23.1744C4.99428 21.9137 5.9049 20.8353 7.14884 20.6298C8.09252 20.4503 8.88051 19.8039 9.24111 18.9136C9.34855 18.6629 9.46164 18.4141 9.58039 18.1671C10.06 17.2438 9.99374 16.1317 9.40792 15.2719C8.67531 14.2537 8.7878 12.8547 9.6737 11.9667L11.7349 9.90552C12.7514 8.88857 14.3547 8.75696 15.5236 9.5945L15.5886 9.63974C16.4614 10.2272 17.572 10.3335 18.5404 9.92248C19.5764 9.54959 20.34 8.65931 20.5507 7.57858L20.5789 7.48245C20.8117 6.0517 22.0472 5.00058 23.4968 5H25.9849C27.4736 4.99932 28.7441 6.07602 28.9876 7.54465L29.0328 7.74257C29.2327 8.77788 29.9567 9.6347 30.9441 10.0045C31.8958 10.4129 32.9902 10.3063 33.845 9.72174L33.9864 9.61995C35.1856 8.75573 36.8345 8.88865 37.8797 9.93379L39.7769 11.8338C40.7276 12.7899 40.8472 14.2934 40.0596 15.3878C39.4426 16.3025 39.3638 17.478 39.8532 18.4668L39.9748 18.7496C40.3712 19.715 41.2284 20.4149 42.2537 20.61C43.5936 20.8284 44.579 21.9837 44.5834 23.3413V26.4881C44.5831 27.6852 43.7172 28.7064 42.5364 28.9027C41.5652 29.0889 40.774 29.7922 40.4753 30.7349C40.3433 31.1119 40.1963 31.4888 40.0342 31.8658C39.6569 32.6941 39.7406 33.6594 40.2547 34.4105C40.9332 35.3543 40.8278 36.6507 40.0059 37.4725L37.3736 40.1077C36.6208 40.8603 35.4338 40.9572 34.5688 40.3367C33.8469 39.8434 32.9116 39.7891 32.1373 40.1953C31.5856 40.4686 31.0193 40.7112 30.4409 40.9219C29.6322 41.2009 29.036 41.8932 28.8801 42.7343C28.7153 43.7925 27.8079 44.5754 26.737 44.5834H22.8126Z" stroke="url(#paint0_linear_171_944)" stroke-width="3" stroke-linecap="round" stroke-linejoin="round"/>
<path fill-rule="evenodd" clip-rule="evenodd" d="M31.388 24.7916C31.388 28.4346 28.4348 31.3879 24.7917 31.3879C21.1487 31.3879 18.1954 28.4346 18.1954 24.7916C18.1954 21.1486 21.1487 18.1953 24.7917 18.1953C28.4348 18.1953 31.388 21.1486 31.388 24.7916Z" stroke="url(#paint1_linear_171_944)" stroke-width="3" stroke-linecap="round" stroke-linejoin="round"/>
</g>
<defs>
<linearGradient id="paint0_linear_171_944" x1="5" y1="23.2712" x2="44.6214" y2="22.703" gradientUnits="userSpaceOnUse">
<stop stop-color="#4650F6"/>
<stop offset="1" stop-color="#141B8C"/>
</linearGradient>
<linearGradient id="paint1_linear_171_944" x1="18.1954" y1="24.2848" x2="31.4007" y2="24.0955" gradientUnits="userSpaceOnUse">
<stop stop-color="#4650F6"/>
<stop offset="1" stop-color="#141B8C"/>
</linearGradient>
<clipPath id="clip0_171_944">
<rect width="50" height="50" fill="white"/>
</clipPath>
</defs>
</svg>
