<svg width="50" height="50" viewBox="0 0 50 50" fill="none" xmlns="http://www.w3.org/2000/svg">
<path d="M9.90152 17.8925C9.42794 18.1766 9.27437 18.7909 9.55852 19.2645C9.84267 19.738 10.4569 19.8916 10.9305 19.6075L9.90152 17.8925ZM20.8327 12.5L21.4327 11.7C21.1074 11.456 20.6668 11.4333 20.3182 11.6425L20.8327 12.5ZM29.166 18.75L28.566 19.55C28.9309 19.8236 29.4346 19.8157 29.7907 19.5308L29.166 18.75ZM40.2074 11.1975C40.6386 10.8525 40.7086 10.2232 40.3636 9.79193C40.0185 9.36067 39.3892 9.29075 38.958 9.63576L40.2074 11.1975ZM36.4987 39.5833C36.4987 40.1356 36.9464 40.5833 37.4987 40.5833C38.051 40.5833 38.4987 40.1356 38.4987 39.5833H36.4987ZM38.4987 22.9166C38.4987 22.3643 38.051 21.9166 37.4987 21.9166C36.9464 21.9166 36.4987 22.3643 36.4987 22.9166H38.4987ZM19.8327 39.5833C19.8327 40.1356 20.2804 40.5833 20.8327 40.5833C21.385 40.5833 21.8327 40.1356 21.8327 39.5833H19.8327ZM21.8327 22.9166C21.8327 22.3643 21.385 21.9166 20.8327 21.9166C20.2804 21.9166 19.8327 22.3643 19.8327 22.9166H21.8327ZM28.1667 39.5833C28.1667 40.1356 28.6144 40.5833 29.1667 40.5833C29.719 40.5833 30.1667 40.1356 30.1667 39.5833H28.1667ZM30.1667 29.1666C30.1667 28.6143 29.719 28.1666 29.1667 28.1666C28.6144 28.1666 28.1667 28.6143 28.1667 29.1666H30.1667ZM11.4987 39.5833C11.4987 40.1356 11.9464 40.5833 12.4987 40.5833C13.051 40.5833 13.4987 40.1356 13.4987 39.5833H11.4987ZM13.4987 29.1666C13.4987 28.6143 13.051 28.1666 12.4987 28.1666C11.9464 28.1666 11.4987 28.6143 11.4987 29.1666H13.4987ZM10.9305 19.6075L21.3472 13.3575L20.3182 11.6425L9.90152 17.8925L10.9305 19.6075ZM20.2327 13.3L28.566 19.55L29.766 17.95L21.4327 11.7L20.2327 13.3ZM29.7907 19.5308L40.2074 11.1975L38.958 9.63576L28.5413 17.9691L29.7907 19.5308ZM38.4987 39.5833V22.9166H36.4987V39.5833H38.4987ZM21.8327 39.5833V22.9166H19.8327V39.5833H21.8327ZM30.1667 39.5833V29.1666H28.1667V39.5833H30.1667ZM13.4987 39.5833V29.1666H11.4987V39.5833H13.4987Z" fill="#FFC917"/>
</svg>
