<svg width="50" height="50" viewBox="0 0 50 50" fill="none" xmlns="http://www.w3.org/2000/svg">
<path fill-rule="evenodd" clip-rule="evenodd" d="M35.832 10.6824L39.0945 13.2803C39.4096 13.5769 39.5872 13.991 39.5848 14.4237C39.5825 14.8563 39.4003 15.2685 39.082 15.5616L36.6029 18.5283L28.1674 28.5887C28.0199 28.7577 27.8232 28.8764 27.6049 28.9283L23.2299 29.9199C22.656 29.9486 22.1563 29.5315 22.082 28.9616V24.4658C22.0969 24.249 22.1842 24.0436 22.3299 23.8824L30.6091 14.522L33.4508 11.1283C34.013 10.3913 35.0413 10.1988 35.832 10.6824Z" stroke="#FFC917" stroke-width="2" stroke-linecap="round" stroke-linejoin="round"/>
<path d="M24.0264 15.3095C24.5787 15.3095 25.0264 14.8618 25.0264 14.3095C25.0264 13.7573 24.5787 13.3095 24.0264 13.3095V15.3095ZM18.1931 14.3095V13.3095L18.1907 13.3095L18.1931 14.3095ZM10.416 22.122H11.416L11.416 22.1199L10.416 22.122ZM10.416 33.8408L11.416 33.8429V33.8408H10.416ZM18.1931 41.6533L18.1907 42.6533H18.1931V41.6533ZM29.8598 41.6533V42.6533L29.8622 42.6533L29.8598 41.6533ZM37.6369 33.8408H36.6369L36.6369 33.8429L37.6369 33.8408ZM38.6369 26.0283C38.6369 25.476 38.1891 25.0283 37.6369 25.0283C37.0846 25.0283 36.6369 25.476 36.6369 26.0283H38.6369ZM31.5337 14.1405C31.323 13.63 30.7383 13.387 30.2278 13.5977C29.7173 13.8085 29.4743 14.3932 29.685 14.9036L31.5337 14.1405ZM36.819 19.4964C37.3582 19.3772 37.6988 18.8434 37.5796 18.3041C37.4603 17.7649 36.9265 17.4243 36.3873 17.5436L36.819 19.4964ZM16.25 34.7949C15.6977 34.7949 15.25 35.2426 15.25 35.7949C15.25 36.3472 15.6977 36.7949 16.25 36.7949V34.7949ZM31.8062 36.7949C32.3585 36.7949 32.8062 36.3472 32.8062 35.7949C32.8062 35.2426 32.3585 34.7949 31.8062 34.7949V36.7949ZM24.0264 13.3095H18.1931V15.3095H24.0264V13.3095ZM18.1907 13.3095C13.3338 13.3212 9.40564 17.2673 9.41604 22.1242L11.416 22.1199C11.408 18.3674 14.443 15.3186 18.1955 15.3095L18.1907 13.3095ZM9.41603 22.122V33.8408H11.416V22.122H9.41603ZM9.41604 33.8386C9.40564 38.6955 13.3338 42.6416 18.1907 42.6533L18.1955 40.6533C14.443 40.6443 11.408 37.5955 11.416 33.8429L9.41604 33.8386ZM18.1931 42.6533H29.8598V40.6533H18.1931V42.6533ZM29.8622 42.6533C34.7191 42.6416 38.6473 38.6955 38.6369 33.8386L36.6369 33.8429C36.6449 37.5955 33.6099 40.6443 29.8574 40.6533L29.8622 42.6533ZM38.6369 33.8408V26.0283H36.6369V33.8408H38.6369ZM29.685 14.9036C30.0657 15.8257 30.8486 17.1411 32.0069 18.1489C33.1833 19.1725 34.8269 19.9368 36.819 19.4964L36.3873 17.5436C35.1939 17.8074 34.1761 17.3852 33.3197 16.6401C32.4451 15.8791 31.8239 14.8435 31.5337 14.1405L29.685 14.9036ZM16.25 36.7949H31.8062V34.7949H16.25V36.7949Z" fill="#FFC917"/>
</svg>
