<svg width="25" height="26" viewBox="0 0 25 26" fill="none" xmlns="http://www.w3.org/2000/svg">
<path fill-rule="evenodd" clip-rule="evenodd" d="M18.9437 5.14443C20.6899 6.80811 21.6781 9.11461 21.6781 11.5264C21.6781 13.9383 20.6899 16.2448 18.9437 17.9085L12.3391 24.2905L5.73451 17.9085C3.98834 16.2448 3.00012 13.9383 3.00012 11.5264C3.00012 9.11461 3.98834 6.80811 5.73451 5.14443C9.43171 1.61852 15.2465 1.61852 18.9437 5.14443Z" stroke="#012843" stroke-linecap="round" stroke-linejoin="round"/>
<path fill-rule="evenodd" clip-rule="evenodd" d="M16.0749 10.9723C16.0614 11.9496 15.6602 12.8814 14.9595 13.5627C14.2589 14.2441 13.3163 14.6191 12.3391 14.6054C11.3619 14.6191 10.4193 14.2441 9.71864 13.5627C9.01802 12.8814 8.6168 11.9496 8.60327 10.9723C8.6323 8.93801 10.3047 7.31225 12.3391 7.34083C14.3734 7.31225 16.0459 8.93801 16.0749 10.9723V10.9723Z" stroke="#012843" stroke-linecap="round" stroke-linejoin="round"/>
</svg>
