<svg width="50" height="50" viewBox="0 0 50 50" fill="none" xmlns="http://www.w3.org/2000/svg">
<path d="M9.71868 25.0023C9.71923 25.5546 10.1674 26.0018 10.7197 26.0013C11.272 26.0007 11.7192 25.5526 11.7187 25.0003L9.71868 25.0023ZM13.102 16.8992L13.9422 17.4415L13.9427 17.4407L13.102 16.8992ZM19.4478 11.5284L19.0539 10.6092L19.0527 10.6097L19.4478 11.5284ZM27.6166 10.695L27.8199 9.71591L27.8168 9.71527L27.6166 10.695ZM34.8541 14.6888L34.1342 15.3828L34.135 15.3836L34.8541 14.6888ZM37.4451 21.1109C37.5977 21.6417 38.1516 21.9483 38.6824 21.7957C39.2132 21.6431 39.5198 21.0892 39.3673 20.5584L37.4451 21.1109ZM37.4377 20.5831C37.2988 21.1176 37.6195 21.6635 38.154 21.8025C38.6885 21.9414 39.2345 21.6207 39.3734 21.0861L37.4377 20.5831ZM40.8525 15.3945C40.9914 14.8599 40.6707 14.314 40.1362 14.1751C39.6017 14.0362 39.0557 14.3569 38.9168 14.8914L40.8525 15.3945ZM38.139 21.7985C38.6714 21.9456 39.2222 21.6333 39.3693 21.101C39.5164 20.5686 39.2041 20.0178 38.6717 19.8707L38.139 21.7985ZM33.153 18.3457C32.6207 18.1986 32.0699 18.5109 31.9228 19.0433C31.7757 19.5756 32.088 20.1264 32.6203 20.2735L33.153 18.3457ZM40.8847 25.0003C40.8841 24.448 40.436 24.0007 39.8837 24.0013C39.3314 24.0018 38.8841 24.45 38.8847 25.0023L40.8847 25.0003ZM37.5014 33.1034L36.6612 32.5611L36.6607 32.5618L37.5014 33.1034ZM31.1555 38.4742L31.5494 39.3934L31.5507 39.3928L31.1555 38.4742ZM22.9868 39.3075L22.7834 40.2866L22.7866 40.2873L22.9868 39.3075ZM15.7493 35.3138L16.4692 34.6197L16.4684 34.6189L15.7493 35.3138ZM13.1583 28.8917C13.0057 28.3609 12.4517 28.0543 11.9209 28.2069C11.3901 28.3594 11.0835 28.9134 11.2361 29.4442L13.1583 28.8917ZM13.165 29.4195C13.3039 28.885 12.9832 28.339 12.4487 28.2001C11.9142 28.0612 11.3682 28.3819 11.2293 28.9164L13.165 29.4195ZM9.75017 34.6081C9.61125 35.1426 9.93196 35.6886 10.4665 35.8275C11.001 35.9664 11.547 35.6457 11.6859 35.1112L9.75017 34.6081ZM12.4635 28.2041C11.9312 28.057 11.3804 28.3693 11.2333 28.9016C11.0862 29.4339 11.3985 29.9847 11.9308 30.1318L12.4635 28.2041ZM17.4496 31.6568C17.9819 31.8039 18.5327 31.4916 18.6798 30.9593C18.8269 30.427 18.5146 29.8762 17.9823 29.7291L17.4496 31.6568ZM11.7187 25.0003C11.716 22.3191 12.4881 19.6942 13.9422 17.4415L12.2618 16.3569C10.5988 18.9334 9.71562 21.9356 9.71868 25.0023L11.7187 25.0003ZM13.9427 17.4407C15.3691 15.2265 17.4234 13.4878 19.843 12.447L19.0527 10.6097C16.2677 11.8077 13.9032 13.809 12.2613 16.3576L13.9427 17.4407ZM19.8417 12.4475C22.229 11.4245 24.8717 11.1549 27.4164 11.6748L27.8168 9.71527C24.873 9.11378 21.8157 9.42567 19.0539 10.6092L19.8417 12.4475ZM27.4132 11.6741C29.9756 12.2063 32.3178 13.4988 34.1342 15.3828L35.574 13.9947C33.4785 11.8211 30.7761 10.3299 27.8199 9.71592L27.4132 11.6741ZM34.135 15.3836C35.6902 16.9932 36.8268 18.9598 37.4451 21.1109L39.3673 20.5584C38.6586 18.0928 37.3558 15.8388 35.5732 13.9939L34.135 15.3836ZM39.3734 21.0861L40.8525 15.3945L38.9168 14.8914L37.4377 20.5831L39.3734 21.0861ZM38.6717 19.8707L33.153 18.3457L32.6203 20.2735L38.139 21.7985L38.6717 19.8707ZM38.8847 25.0023C38.8874 27.6835 38.1152 30.3084 36.6612 32.5611L38.3415 33.6457C40.0046 31.0691 40.8877 28.0669 40.8847 25.0003L38.8847 25.0023ZM36.6607 32.5618C35.2343 34.7761 33.18 36.5148 30.7604 37.5556L31.5507 39.3928C34.3357 38.1948 36.7002 36.1936 38.342 33.6449L36.6607 32.5618ZM30.7616 37.555C28.3744 38.5781 25.7316 38.8477 23.187 38.3278L22.7866 40.2873C25.7304 40.8888 28.7877 40.5769 31.5494 39.3933L30.7616 37.555ZM23.1901 38.3284C20.6278 37.7963 18.2855 36.5038 16.4692 34.6197L15.0293 36.0078C17.1249 38.1815 19.8272 39.6727 22.7834 40.2866L23.1901 38.3284ZM16.4684 34.6189C14.9132 33.0093 13.7766 31.0428 13.1583 28.8917L11.2361 29.4442C11.9448 31.9097 13.2475 34.1638 15.0301 36.0086L16.4684 34.6189ZM11.2293 28.9164L9.75017 34.6081L11.6859 35.1112L13.165 29.4195L11.2293 28.9164ZM11.9308 30.1318L17.4496 31.6568L17.9823 29.7291L12.4635 28.2041L11.9308 30.1318Z" fill="#FFC917"/>
</svg>
