<svg width="50" height="50" viewBox="0 0 50 50" fill="none" xmlns="http://www.w3.org/2000/svg">
<path fill-rule="evenodd" clip-rule="evenodd" d="M24.9987 29.1666C22.6975 29.1666 20.832 27.3012 20.832 25C20.832 22.6988 22.6975 20.8333 24.9987 20.8333C27.2999 20.8333 29.1654 22.6988 29.1654 25C29.1654 26.105 28.7264 27.1649 27.945 27.9463C27.1636 28.7277 26.1038 29.1666 24.9987 29.1666Z" stroke="#FFC917" stroke-width="2" stroke-linecap="round" stroke-linejoin="round"/>
<path fill-rule="evenodd" clip-rule="evenodd" d="M36.0764 33.4646V30.6687C36.0764 29.9764 36.3514 29.3125 36.841 28.8229L38.8181 26.8458C39.8375 25.8264 39.8375 24.1736 38.8181 23.1542L36.841 21.1771C36.3514 20.6875 36.0764 20.0236 36.0764 19.3312V16.5333C36.0764 15.0916 34.9077 13.9229 33.466 13.9229H30.6681C29.9758 13.9229 29.3118 13.6479 28.8222 13.1583L26.8452 11.1813C25.8257 10.1618 24.1729 10.1618 23.1535 11.1813L21.1764 13.1583C20.6869 13.6479 20.0229 13.9229 19.3306 13.9229H16.5327C15.84 13.9229 15.1757 14.1982 14.6861 14.6882C14.1965 15.1782 13.9217 15.8427 13.9222 16.5354V19.3312C13.9222 20.0236 13.6472 20.6875 13.1577 21.1771L11.1806 23.1542C10.1612 24.1736 10.1612 25.8264 11.1806 26.8458L13.1577 28.8229C13.6472 29.3125 13.9222 29.9764 13.9222 30.6687V33.4646C13.9222 34.9063 15.091 36.075 16.5327 36.075H19.3306C20.0229 36.075 20.6869 36.35 21.1764 36.8396L23.1535 38.8167C24.1729 39.8361 25.8257 39.8361 26.8452 38.8167L28.8222 36.8396C29.3118 36.35 29.9758 36.075 30.6681 36.075H33.4639C34.1566 36.0756 34.8211 35.8008 35.3111 35.3112C35.8011 34.8216 36.0764 34.1573 36.0764 33.4646Z" stroke="#FFC917" stroke-width="2" stroke-linecap="round" stroke-linejoin="round"/>
</svg>
