<svg width="25" height="26" viewBox="0 0 25 26" fill="none" xmlns="http://www.w3.org/2000/svg">
<path d="M20.3671 3.62198C20.1163 3.64023 19.8702 3.69907 19.6382 3.7962H19.6351C19.4125 3.88448 18.3539 4.3298 16.7445 5.0048L10.9773 7.4337C6.83902 9.17589 2.77105 10.8915 2.77105 10.8915L2.81949 10.8728C2.81949 10.8728 2.53902 10.965 2.24605 11.1657C2.06506 11.2809 1.90931 11.4316 1.78824 11.6087C1.64449 11.8196 1.52886 12.1423 1.57183 12.4759C1.64214 13.04 2.00777 13.3782 2.27027 13.565C2.53589 13.754 2.78902 13.8423 2.78902 13.8423H2.79527L6.61011 15.1275C6.78121 15.6767 7.77261 18.936 8.01089 19.6868C8.15152 20.1353 8.28824 20.4157 8.45933 20.6298C8.54214 20.7392 8.63902 20.8306 8.75542 20.904C8.81594 20.9392 8.88046 20.967 8.94761 20.9868L8.90855 20.9775C8.92027 20.9806 8.92964 20.99 8.93824 20.9931C8.96949 21.0017 8.99058 21.0048 9.03042 21.011C9.63433 21.1939 10.1195 20.8189 10.1195 20.8189L10.1468 20.797L12.3992 18.7462L16.1742 21.6423L16.2601 21.679C17.0468 22.0243 17.8437 21.8321 18.2648 21.4931C18.689 21.1517 18.8539 20.715 18.8539 20.715L18.8812 20.6446L21.7984 5.70011C21.8812 5.33136 21.9023 4.98605 21.8109 4.65089C21.7166 4.31169 21.499 4.01996 21.2007 3.83292C20.9503 3.68067 20.6599 3.60718 20.3671 3.62198ZM20.2882 5.22355C20.2851 5.27277 20.2945 5.2673 20.2726 5.36183V5.37042L17.3828 20.1595C17.3703 20.1806 17.3492 20.2267 17.2914 20.2728C17.2304 20.3212 17.182 20.3517 16.9281 20.2509L12.3109 16.711L9.52183 19.2532L10.1078 15.511L17.6515 8.4798C17.9625 8.19073 17.8585 8.1298 17.8585 8.1298C17.8804 7.77511 17.389 8.02589 17.389 8.02589L7.87652 13.9189L7.87339 13.9032L3.31402 12.3681V12.365L3.3023 12.3626C3.31029 12.36 3.31812 12.3568 3.32574 12.3532L3.35074 12.3407L3.37496 12.3321C3.37496 12.3321 7.44605 10.6165 11.5843 8.87433C13.6562 8.00167 15.7437 7.12277 17.3492 6.44464C18.9546 5.77042 20.1414 5.27589 20.2085 5.24933C20.2726 5.22433 20.2421 5.22433 20.2882 5.22433V5.22355Z" fill="white"/>
</svg>
