<svg width="25" height="26" viewBox="0 0 25 26" fill="none" xmlns="http://www.w3.org/2000/svg">
<path d="M20.3671 3.62186C20.1163 3.64011 19.8702 3.69895 19.6382 3.79608H19.6351C19.4125 3.88436 18.3539 4.32968 16.7445 5.00468L10.9773 7.43358C6.83902 9.17577 2.77105 10.8914 2.77105 10.8914L2.81949 10.8726C2.81949 10.8726 2.53902 10.9648 2.24605 11.1656C2.06506 11.2808 1.90931 11.4315 1.78824 11.6086C1.64449 11.8195 1.52886 12.1422 1.57183 12.4758C1.64214 13.0398 2.00777 13.3781 2.27027 13.5648C2.53589 13.7539 2.78902 13.8422 2.78902 13.8422H2.79527L6.61011 15.1273C6.78121 15.6766 7.77261 18.9359 8.01089 19.6867C8.15152 20.1351 8.28824 20.4156 8.45933 20.6297C8.54214 20.7391 8.63902 20.8305 8.75542 20.9039C8.81594 20.9391 8.88046 20.9669 8.94761 20.9867L8.90855 20.9773C8.92027 20.9805 8.92964 20.9898 8.93824 20.993C8.96949 21.0016 8.99058 21.0047 9.03042 21.0109C9.63433 21.1937 10.1195 20.8187 10.1195 20.8187L10.1468 20.7969L12.3992 18.7461L16.1742 21.6422L16.2601 21.6789C17.0468 22.0242 17.8437 21.832 18.2648 21.493C18.689 21.1516 18.8539 20.7148 18.8539 20.7148L18.8812 20.6445L21.7984 5.69999C21.8812 5.33124 21.9023 4.98593 21.8109 4.65077C21.7166 4.31157 21.499 4.01984 21.2007 3.8328C20.9503 3.68055 20.6599 3.60706 20.3671 3.62186ZM20.2882 5.22343C20.2851 5.27264 20.2945 5.26718 20.2726 5.36171V5.3703L17.3828 20.1594C17.3703 20.1805 17.3492 20.2266 17.2914 20.2726C17.2304 20.3211 17.182 20.3516 16.9281 20.2508L12.3109 16.7109L9.52183 19.2531L10.1078 15.5109L17.6515 8.47968C17.9625 8.19061 17.8585 8.12968 17.8585 8.12968C17.8804 7.77499 17.389 8.02577 17.389 8.02577L7.87652 13.9187L7.87339 13.9031L3.31402 12.368V12.3648L3.3023 12.3625C3.31029 12.3598 3.31812 12.3567 3.32574 12.3531L3.35074 12.3406L3.37496 12.332C3.37496 12.332 7.44605 10.6164 11.5843 8.87421C13.6562 8.00155 15.7437 7.12264 17.3492 6.44452C18.9546 5.7703 20.1414 5.27577 20.2085 5.24921C20.2726 5.22421 20.2421 5.22421 20.2882 5.22421V5.22343Z" fill="#0A509D"/>
</svg>
