<svg width="50" height="50" viewBox="0 0 50 50" fill="none" xmlns="http://www.w3.org/2000/svg">
<g clip-path="url(#clip0_120_926)">
<path d="M39.2828 20.4093C39.5108 21.2057 40.3413 21.6666 41.1377 21.4386C41.9341 21.2106 42.395 20.3801 42.167 19.5837L39.2828 20.4093ZM36.4749 12.6215L37.5551 11.5808L37.554 11.5796L36.4749 12.6215ZM27.7774 7.83401L28.0805 6.36494L28.0777 6.36437L27.7774 7.83401ZM17.9749 8.83401L17.384 7.45528L17.3826 7.45591L17.9749 8.83401ZM10.3599 15.274L9.09928 14.4611L9.09926 14.4611L10.3599 15.274ZM12.4699 37.3715L13.5546 36.3354L13.5539 36.3347L12.4699 37.3715ZM33.8924 39.549L34.7464 40.7822L34.7468 40.7819L33.8924 39.549ZM41.5357 32.2496C41.8425 31.48 41.4675 30.6075 40.6979 30.3007C39.9284 29.9939 39.0559 30.3689 38.7491 31.1385L41.5357 32.2496ZM39.2731 19.6192C39.0647 20.421 39.5458 21.2399 40.3476 21.4483C41.1494 21.6567 41.9683 21.1756 42.1767 20.3738L39.2731 19.6192ZM43.9517 13.5438C44.16 12.742 43.679 11.9231 42.8772 11.7147C42.0754 11.5064 41.2565 11.9874 41.0481 12.7892L43.9517 13.5438ZM40.3254 21.4423C41.1239 21.663 41.9501 21.1945 42.1707 20.396C42.3914 19.5975 41.9229 18.7713 41.1244 18.5507L40.3254 21.4423ZM34.5019 16.7207C33.7034 16.5 32.8772 16.9685 32.6566 17.767C32.4359 18.5655 32.9044 19.3917 33.7029 19.6123L34.5019 16.7207ZM23.9999 19.9965C23.9999 19.1681 23.3283 18.4965 22.4999 18.4965C21.6715 18.4965 20.9999 19.1681 20.9999 19.9965H23.9999ZM22.4999 27.4965H20.9999C20.9999 28.3249 21.6715 28.9965 22.4999 28.9965V27.4965ZM29.9999 28.9965C30.8283 28.9965 31.4999 28.3249 31.4999 27.4965C31.4999 26.6681 30.8283 25.9965 29.9999 25.9965V28.9965ZM42.167 19.5837C41.3069 16.5792 39.7234 13.8314 37.5551 11.5808L35.3947 13.6622C37.2227 15.5597 38.5577 17.8763 39.2828 20.4093L42.167 19.5837ZM37.554 11.5796C34.9931 8.92737 31.6912 7.10989 28.0805 6.36495L27.4743 9.30307C30.4935 9.92598 33.2544 11.4457 35.3958 13.6634L37.554 11.5796ZM28.0777 6.36437C24.4852 5.63035 20.7543 6.01096 17.384 7.45528L18.5657 10.2127C21.3743 9.00914 24.4834 8.69196 27.4771 9.30364L28.0777 6.36437ZM17.3826 7.45591C13.9865 8.91562 11.1026 11.3545 9.09928 14.4611L11.6205 16.0869C13.3006 13.4816 15.7191 11.4363 18.5672 10.2121L17.3826 7.45591ZM9.09926 14.4611C4.23053 22.0115 5.17625 31.9158 11.3859 38.4083L13.5539 36.3347C8.30354 30.8452 7.50391 22.4709 11.6205 16.0869L9.09926 14.4611ZM11.3852 38.4076C17.5278 44.8382 27.4355 45.8453 34.7464 40.7822L33.0384 38.3159C26.9409 42.5386 18.6777 41.6987 13.5546 36.3354L11.3852 38.4076ZM34.7468 40.7819C37.799 38.6667 40.1604 35.699 41.5357 32.2496L38.7491 31.1385C37.5921 34.0402 35.6057 36.5368 33.038 38.3161L34.7468 40.7819ZM42.1767 20.3738L43.9517 13.5438L41.0481 12.7892L39.2731 19.6192L42.1767 20.3738ZM41.1244 18.5507L34.5019 16.7207L33.7029 19.6123L40.3254 21.4423L41.1244 18.5507ZM20.9999 19.9965V27.4965H23.9999V19.9965H20.9999ZM22.4999 28.9965H29.9999V25.9965H22.4999V28.9965Z" fill="url(#paint0_linear_120_926)"/>
</g>
<defs>
<linearGradient id="paint0_linear_120_926" x1="7.5" y1="23.6546" x2="42.5334" y2="23.1522" gradientUnits="userSpaceOnUse">
<stop stop-color="#4650F6"/>
<stop offset="1" stop-color="#141B8C"/>
</linearGradient>
<clipPath id="clip0_120_926">
<rect width="50" height="50" fill="white"/>
</clipPath>
</defs>
</svg>
