<svg width="50" height="50" viewBox="0 0 50 50" fill="none" xmlns="http://www.w3.org/2000/svg">
<g clip-path="url(#clip0_120_927)">
<path fill-rule="evenodd" clip-rule="evenodd" d="M24.1714 38.825C24.438 38.9849 24.723 39.0557 25 39.0523C25.2769 39.0557 25.5619 38.9849 25.8285 38.825L28.1937 37.4059C32.8322 34.6228 38.5051 34.1682 43.5276 36.1772C45.3804 36.9183 47.3958 35.5538 47.3958 33.5583V9.26901C47.3958 8.06495 46.6627 6.9822 45.5448 6.53502C39.0759 3.94745 31.7692 4.53291 25.7948 8.11753L25 8.59445L24.2051 8.11753C18.2307 4.53291 10.9241 3.94745 4.45513 6.53502C3.33719 6.9822 2.60413 8.06495 2.60413 9.26901V33.5583C2.60413 35.5538 4.61953 36.9183 6.47229 36.1772C11.4948 34.1682 17.1677 34.6228 21.8062 37.4059L24.1714 38.825ZM5.72913 9.39157V33.114C11.5537 30.9306 18.0662 31.5175 23.414 34.7262L23.4375 34.7403V11.3013L22.5973 10.7972C17.4953 7.73597 11.2632 7.2186 5.72913 9.39157ZM26.5859 34.7262L26.5625 34.7403V11.3013L27.4026 10.7972C32.5047 7.73597 38.7368 7.2186 44.2708 9.39157V33.114C38.4462 30.9306 31.9337 31.5175 26.5859 34.7262Z" fill="url(#paint0_linear_120_927)"/>
<path d="M19.3232 39.6713C15.1068 37.2117 9.89307 37.2117 5.67671 39.6713L5.46266 39.7961C4.71727 40.231 4.46549 41.1877 4.90031 41.9331C5.33512 42.6785 6.29186 42.9303 7.03726 42.4955L7.2513 42.3706C10.4947 40.4786 14.5053 40.4786 17.7486 42.3706L20.0137 43.6919C23.0949 45.4893 26.905 45.4893 29.9862 43.6919L32.2513 42.3706C35.4947 40.4786 39.5053 40.4786 42.7486 42.3706L42.9627 42.4955C43.7081 42.9303 44.6648 42.6785 45.0996 41.9331C45.5344 41.1877 45.2827 40.231 44.5373 39.7961L44.3232 39.6713C40.1068 37.2117 34.8931 37.2117 30.6767 39.6713L28.4116 40.9926C26.3034 42.2224 23.6965 42.2224 21.5883 40.9926L19.3232 39.6713Z" fill="url(#paint1_linear_120_927)"/>
<path fill-rule="evenodd" clip-rule="evenodd" d="M24.1714 38.825C24.438 38.9849 24.723 39.0557 25 39.0523C25.2769 39.0557 25.5619 38.9849 25.8285 38.825L28.1937 37.4059C32.8322 34.6228 38.5051 34.1682 43.5276 36.1772C45.3804 36.9183 47.3958 35.5538 47.3958 33.5583V9.26901C47.3958 8.06495 46.6627 6.9822 45.5448 6.53502C39.0759 3.94745 31.7692 4.53291 25.7948 8.11753L25 8.59445L24.2051 8.11753C18.2307 4.53291 10.9241 3.94745 4.45513 6.53502C3.33719 6.9822 2.60413 8.06495 2.60413 9.26901V33.5583C2.60413 35.5538 4.61953 36.9183 6.47229 36.1772C11.4948 34.1682 17.1677 34.6228 21.8062 37.4059L24.1714 38.825ZM5.72913 9.39157V33.114C11.5537 30.9306 18.0662 31.5175 23.414 34.7262L23.4375 34.7403V11.3013L22.5973 10.7972C17.4953 7.73597 11.2632 7.2186 5.72913 9.39157ZM26.5859 34.7262L26.5625 34.7403V11.3013L27.4026 10.7972C32.5047 7.73597 38.7368 7.2186 44.2708 9.39157V33.114C38.4462 30.9306 31.9337 31.5175 26.5859 34.7262Z" stroke="white" stroke-width="0.7" stroke-linecap="round" stroke-linejoin="round"/>
<path d="M19.3232 39.6713C15.1068 37.2117 9.89307 37.2117 5.67671 39.6713L5.46266 39.7961C4.71727 40.231 4.46549 41.1877 4.90031 41.9331C5.33512 42.6785 6.29186 42.9303 7.03726 42.4955L7.2513 42.3706C10.4947 40.4786 14.5053 40.4786 17.7486 42.3706L20.0137 43.6919C23.0949 45.4893 26.905 45.4893 29.9862 43.6919L32.2513 42.3706C35.4947 40.4786 39.5053 40.4786 42.7486 42.3706L42.9627 42.4955C43.7081 42.9303 44.6648 42.6785 45.0996 41.9331C45.5344 41.1877 45.2827 40.231 44.5373 39.7961L44.3232 39.6713C40.1068 37.2117 34.8931 37.2117 30.6767 39.6713L28.4116 40.9926C26.3034 42.2224 23.6965 42.2224 21.5883 40.9926L19.3232 39.6713Z" stroke="white" stroke-width="0.7" stroke-linecap="round" stroke-linejoin="round"/>
</g>
<defs>
<linearGradient id="paint0_linear_120_927" x1="2.60413" y1="23.4498" x2="47.4364" y2="22.7317" gradientUnits="userSpaceOnUse">
<stop stop-color="#4650F6"/>
<stop offset="1" stop-color="#141B8C"/>
</linearGradient>
<linearGradient id="paint1_linear_120_927" x1="2.60413" y1="23.4498" x2="47.4364" y2="22.7317" gradientUnits="userSpaceOnUse">
<stop stop-color="#4650F6"/>
<stop offset="1" stop-color="#141B8C"/>
</linearGradient>
<clipPath id="clip0_120_927">
<rect width="50" height="50" fill="white"/>
</clipPath>
</defs>
</svg>
